<svg width="100" height="69" viewBox="0 0 100 69" fill="none" xmlns="http://www.w3.org/2000/svg">
<path d="M66.2876 34.8874L100 56.1999V12.6749L66.2876 34.8874Z" fill="#FC7753"/>
<path d="M0 12.6749V56.1999L33.7125 34.8874L0 12.6749Z" fill="#FC7753"/>
<path d="M93.75 0H6.25C3.13125 0 0.65625 2.325 0.1875 5.31875L50 38.1375L99.8125 5.31875C99.3438 2.325 96.8688 0 93.75 0Z" fill="#FC7753"/>
<path d="M60.5625 38.6626L51.7187 44.4876C51.1937 44.8314 50.5999 45.0001 50 45.0001C49.4 45.0001 48.8062 44.8314 48.2812 44.4876L39.4375 38.6564L0.199951 63.4751C0.681201 66.4439 3.1437 68.7501 6.24995 68.7501H93.75C96.8562 68.7501 99.3187 66.4439 99.8 63.4751L60.5625 38.6626Z" fill="#FC7753"/>
</svg>
