<svg width="97" height="85" viewBox="0 0 97 85" fill="none" xmlns="http://www.w3.org/2000/svg">
<path d="M96.2794 44.1026C95.2318 42.2402 92.7874 41.5418 90.8085 42.7058L77.5389 50.3882L74.1633 52.367V70.7583L77.3061 72.6207C77.4225 72.6207 77.4225 72.7371 77.5389 72.7371L90.5757 80.3032C91.1577 80.7688 91.9725 81.0016 92.7873 81.0016C94.999 81.0016 96.745 79.2556 96.745 77.0439V61.4463L96.8614 46.0814C96.8614 45.383 96.745 44.6846 96.2794 44.1026Z" fill="#FC7753"/>
<path d="M18.7562 38.167C29.1158 38.167 37.4967 29.7862 37.4967 19.4265C37.4967 9.06687 29.1158 0.686035 18.7562 0.686035C8.39655 0.686035 0.0157082 9.06687 0.0157082 19.4265C-0.100692 29.7862 8.39655 38.167 18.7562 38.167ZM18.7562 11.7441C23.063 11.7441 26.4386 15.2361 26.4386 19.4265C26.4386 23.7333 22.9466 27.1089 18.7562 27.1089C14.5658 27.1089 11.0738 23.6169 11.0738 19.4265C10.9574 15.1197 14.4494 11.7441 18.7562 11.7441Z" fill="#FC7753"/>
<path d="M66.2482 39.2143C63.2218 40.7275 59.8461 41.6587 56.2377 41.6587C51.8145 41.6587 47.6241 40.3783 44.1321 38.0503H30.8624C27.3704 40.3783 23.18 41.6587 18.7568 41.6587C15.1483 41.6587 11.7727 40.8439 8.74632 39.2143C6.0691 40.7275 4.2067 43.7539 4.2067 47.0131V75.4149C4.2067 80.6529 8.51351 84.8433 13.6351 84.8433H61.4757C66.7138 84.8433 70.9042 80.5365 70.9042 75.4149V47.0131C70.7878 43.7539 68.9254 40.7275 66.2482 39.2143Z" fill="#FC7753"/>
<path d="M56.2374 38.1665C66.597 38.1665 74.9779 29.7857 74.9779 19.426C74.9779 9.06638 66.597 0.685547 56.2374 0.685547C45.8777 0.685547 37.4969 9.06638 37.4969 19.426C37.4969 29.7857 45.8777 38.1665 56.2374 38.1665ZM56.2374 11.7436C60.5442 11.7436 63.9198 15.2356 63.9198 19.426C63.9198 23.7328 60.4278 27.1085 56.2374 27.1085C52.0469 27.1085 48.5549 23.6164 48.5549 19.426C48.5549 15.1192 51.9305 11.7436 56.2374 11.7436Z" fill="#FC7753"/>
</svg>
