<svg width="95" height="97" viewBox="0 0 95 97" fill="none" xmlns="http://www.w3.org/2000/svg">
<circle cx="40" cy="57" r="40" fill="#FC7753"/>
<path d="M27.1493 79.6363C27.947 80.434 29.2403 80.434 30.0379 79.6363C30.8355 78.8386 30.8356 77.5453 30.0379 76.7477L27.8714 74.5812L30.7599 71.6927L32.9264 73.8592C33.7242 74.6569 35.0175 74.6569 35.8152 73.8592C36.6128 73.0615 36.6129 71.7681 35.8152 70.9706L31.4823 66.6377L22.8164 75.3036L27.1493 79.6363Z" fill="white"/>
<path d="M57.6933 41.8702C59.5438 45.0032 59.123 49.1064 56.431 51.7983C53.7392 54.4902 49.6361 54.9111 46.5029 53.0606L43.5835 53.0913L43.5527 56.0107C48.3389 59.4215 55.0259 58.9808 59.3198 54.687C63.6137 50.3931 64.0544 43.7061 60.6436 38.9199L57.7241 38.9507L57.6933 41.8702Z" fill="white"/>
<path d="M45.0716 52.1036C41.8482 48.9004 41.8482 43.7069 45.0716 40.5036C48.295 37.3003 53.521 37.3003 56.7444 40.5036C57.2482 41.0042 57.6733 41.5536 58.0196 42.1364L61 39.1746C60.6051 38.6239 60.1598 38.0977 59.6627 37.6037C54.8276 32.7988 46.9884 32.7988 42.1533 37.6037C37.8155 41.9145 37.3702 48.6278 40.816 53.4328L17.6044 76.4995C16.7986 77.3002 16.7985 78.5987 17.6044 79.3994C18.4102 80.2002 19.7166 80.2003 20.5225 79.3994L43.7342 56.3326L46.7145 53.3709C46.1282 53.0269 45.5754 52.6044 45.0716 52.1036Z" fill="white"/>
<path d="M60.134 36.8138C57.6408 34.3545 54.326 33 50.8002 33C47.2744 33 43.9596 34.3545 41.4663 36.8138C39.2456 39.0046 37.8872 41.9098 37.6415 44.9944C37.4158 47.8262 38.1348 50.6536 39.6718 53.0272L16.8325 75.5565C15.7225 76.6516 15.7225 78.4333 16.8325 79.5284C17.3703 80.0588 18.0853 80.3511 18.8458 80.3511C19.6063 80.3511 20.3212 80.0588 20.8591 79.5284L23.3126 77.1081L26.4238 80.1773C26.9616 80.7077 27.6766 81 28.4371 81C29.1975 81 29.9125 80.7078 30.4503 80.1773C31.5604 79.0822 31.5603 77.3004 30.4503 76.2054L28.803 74.5806L30.6333 72.7751L32.2805 74.3999C32.8182 74.9305 33.5332 75.2227 34.2937 75.2227C35.0542 75.2227 35.7691 74.9305 36.3068 74.4C36.8446 73.8697 37.1409 73.1643 37.1409 72.4141C37.1409 71.664 36.8446 70.9586 36.3069 70.4281L33.1953 67.359L43.6975 56.9992C45.8161 58.3375 48.2579 59.0417 50.801 59.0419C54.3267 59.0418 57.6409 57.6876 60.1338 55.2286C62.6269 52.7691 64 49.4992 64 46.0212C64.0003 42.5432 62.6272 39.2733 60.134 36.8138ZM59.0358 54.1454C56.8361 56.3153 53.9123 57.51 50.8021 57.51C48.3614 57.5099 46.0277 56.7759 44.0522 55.3871C43.7433 55.1701 43.3209 55.2046 43.0525 55.4692L31.5483 66.8174C31.4027 66.9612 31.321 67.1559 31.321 67.3591C31.321 67.5624 31.4028 67.757 31.5483 67.9008L35.2086 71.5115C35.453 71.7525 35.5877 72.0731 35.5877 72.4142C35.5877 72.7553 35.453 73.0758 35.2086 73.3169C34.9642 73.558 34.6392 73.6908 34.2935 73.6908C33.9479 73.6908 33.6228 73.558 33.3783 73.3168L31.182 71.1504C30.8788 70.8513 30.3872 70.8513 30.0839 71.1504L27.1557 74.0389C26.8525 74.3381 26.8525 74.823 27.1557 75.1222L29.3521 77.2887C29.8567 77.7864 29.8567 78.5963 29.3521 79.0941C29.1077 79.3352 28.7827 79.468 28.437 79.468C28.0914 79.468 27.7663 79.3352 27.5219 79.0941L23.8616 75.4833C23.7099 75.3338 23.5113 75.259 23.3125 75.259C23.1139 75.259 22.915 75.3338 22.7634 75.4833L19.7609 78.4452C19.5165 78.6864 19.1914 78.8192 18.8457 78.8192C18.5001 78.8192 18.1749 78.6864 17.9306 78.4452C17.4259 77.9476 17.4259 77.1376 17.9306 76.6399L41.2224 53.6639C41.4905 53.3992 41.5257 52.9824 41.3056 52.6777C37.9964 48.097 38.5258 41.8808 42.5643 37.8969C44.7642 35.7269 47.689 34.5319 50.8002 34.5319C53.9114 34.5319 56.8361 35.727 59.0359 37.897C61.2358 40.067 62.4473 42.9522 62.4473 46.0211C62.4473 49.09 61.2357 51.9753 59.0358 54.1454Z" fill="#181819"/>
<path d="M58.3005 45.5669C57.8983 45.5486 57.5587 45.8807 57.5423 46.3062C57.47 48.1818 56.7393 49.9457 55.4851 51.2728C54.1541 52.6814 52.3844 53.4571 50.5018 53.4571C48.6194 53.4571 46.8496 52.6814 45.5184 51.2729C42.7705 48.3653 42.7705 43.6345 45.5184 40.727C46.8495 39.3184 48.6192 38.5427 50.5018 38.5427C52.3844 38.5427 54.1541 39.3184 55.4852 40.7269C56.2359 41.5212 56.7947 42.4572 57.146 43.509C57.28 43.9107 57.6967 44.1212 58.0763 43.9793C58.4559 43.8373 58.655 43.3967 58.5207 42.995C58.0963 41.7243 57.4219 40.5943 56.5163 39.636C54.9097 37.9362 52.7738 37 50.5018 37C48.2298 37 46.0939 37.9362 44.4873 39.636C41.1709 43.1451 41.1709 48.8549 44.4873 52.364C46.0939 54.0638 48.2298 55 50.5018 55C52.7738 55 54.9098 54.0638 56.5163 52.364C58.0301 50.7622 58.9119 48.6333 58.9994 46.3693C59.0156 45.9434 58.7029 45.5843 58.3005 45.5669Z" fill="black"/>
<path d="M78.92 18.8C79 16.4533 79.76 14.6267 81.2 13.32C82.64 11.9867 84.5467 11.32 86.92 11.32C89.2667 11.32 91.1467 11.8933 92.56 13.04C93.9733 14.16 94.68 15.7733 94.68 17.88C94.68 18.92 94.5067 19.8267 94.16 20.6C93.84 21.3733 93.4267 22.0267 92.92 22.56C92.4133 23.0933 91.76 23.7067 90.96 24.4C90.1867 25.0667 89.5867 25.64 89.16 26.12C88.7333 26.5733 88.36 27.1333 88.04 27.8C87.7467 28.4667 87.6 29.2267 87.6 30.08H84.68C84.68 29.0133 84.84 28.08 85.16 27.28C85.48 26.48 85.8667 25.8267 86.32 25.32C86.7733 24.7867 87.3867 24.1733 88.16 23.48C89.1733 22.5733 89.92 21.7733 90.4 21.08C90.88 20.3867 91.12 19.4933 91.12 18.4C91.12 17.1467 90.72 16.2 89.92 15.56C89.12 14.8933 88.0133 14.56 86.6 14.56C85.1867 14.56 84.0667 14.9333 83.24 15.68C82.4133 16.4 81.9733 17.4533 81.92 18.84L78.92 18.8ZM86.08 34.76C86.6933 34.76 87.2 34.9733 87.6 35.4C88.0267 35.8267 88.24 36.3733 88.24 37.04C88.24 37.7067 88.0267 38.2667 87.6 38.72C87.2 39.1467 86.6933 39.36 86.08 39.36C85.4667 39.36 84.9467 39.1467 84.52 38.72C84.0933 38.2667 83.88 37.7067 83.88 37.04C83.88 36.3733 84.0933 35.8267 84.52 35.4C84.9467 34.9733 85.4667 34.76 86.08 34.76Z" fill="#181819"/>
</svg>
