<svg width="98" height="86" viewBox="0 0 98 86" fill="none" xmlns="http://www.w3.org/2000/svg">
<path d="M71.5975 0.685547C60.1237 0.685547 52.7588 8.63225 48.8991 15.7892C45.0395 8.63206 37.6746 0.685547 26.2008 0.685547C11.643 0.685547 0.475952 12.4974 0.475952 28.1634C0.475952 32.251 1.29442 36.0248 2.8014 39.6511H24.4469L29.3373 29.8702C30.3016 27.9472 33.4491 27.9472 34.4134 29.8702L43.2246 47.4926L46.3611 41.2196C47.3254 39.2966 50.4729 39.2966 51.4372 41.2196L54.5737 47.4926L63.3849 29.8704C64.3492 27.9474 67.4967 27.9474 68.461 29.8704L73.3513 39.6511H94.9969C96.5039 36.0248 97.3223 32.251 97.3223 28.1634C97.3223 12.4974 86.1553 0.685547 71.5975 0.685547Z" fill="#FC7753"/>
<path d="M71.5973 45.3252C70.5222 45.3252 69.5414 44.7184 69.0593 43.757L65.9227 37.4839L57.1116 55.1062C56.6294 56.0676 55.6487 56.6744 54.5735 56.6744C53.4984 56.6744 52.5176 56.0676 52.0355 55.1062L48.8989 48.8331L45.7624 55.1062C44.7981 57.0291 41.6506 57.0291 40.6863 55.1062L31.8752 37.4839L28.7386 43.757C28.2565 44.7184 27.2757 45.3252 26.2006 45.3252H5.77902C11.6187 54.5132 22.1359 63.2405 35.2915 74.3438C38.9849 77.4608 42.9139 80.7776 47.0396 84.3547C47.5743 84.8174 48.2365 85.0474 48.8987 85.0474C49.561 85.0474 50.2232 84.8174 50.7579 84.3547C54.8837 80.7776 58.8126 77.461 62.5061 74.3438C75.6618 63.2405 86.1788 54.5132 92.0185 45.3252H71.5973Z" fill="#FC7753"/>
</svg>
