<svg width="22" height="22" viewBox="0 0 22 22" fill="none" xmlns="http://www.w3.org/2000/svg">
<path fill-rule="evenodd" clip-rule="evenodd" d="M8.99138 17.9827C4.03395 17.9827 0 13.9488 0 8.99137C0 4.03395 4.03395 0 8.99138 0C13.9488 0 17.9828 4.03395 17.9828 8.99137C17.9828 13.9488 13.9488 17.9827 8.99138 17.9827ZM8.99138 1.29342C4.74673 1.29342 1.29342 4.74672 1.29342 8.99137C1.29342 13.236 4.74673 16.6893 8.99138 16.6893C13.236 16.6893 16.6893 13.236 16.6893 8.99137C16.6893 4.74672 13.236 1.29342 8.99138 1.29342Z" fill="#FC7753"/>
<path fill-rule="evenodd" clip-rule="evenodd" d="M21.0168 22L14.7582 15.7415L15.7415 14.7582L22 21.0167L21.0168 22Z" fill="#FC7753"/>
</svg>
