<svg width="57" height="99" viewBox="0 0 57 99" fill="none" xmlns="http://www.w3.org/2000/svg">
<path d="M49.1159 0.768066H7.99846C4.06336 0.768066 0.88678 3.95889 0.88678 7.88687V91.3824C0.88678 95.3068 4.06336 98.4941 7.99846 98.4941H49.1159C53.0439 98.4941 56.2276 95.3068 56.2276 91.3824V7.88687C56.2276 3.95889 53.0439 0.768066 49.1159 0.768066ZM18.4114 5.09134H38.7101C39.2229 5.09134 39.6396 5.857 39.6396 6.80427C39.6396 7.75155 39.2229 8.52077 38.7101 8.52077H18.4114C17.895 8.52077 17.4855 7.75155 17.4855 6.80427C17.4855 5.857 17.895 5.09134 18.4114 5.09134ZM28.5607 91.4679C26.0572 91.4679 24.0202 89.4309 24.0202 86.9238C24.0202 84.4167 26.0572 82.3869 28.5607 82.3869C31.0571 82.3869 33.0941 84.4167 33.0941 86.9238C33.0941 89.4309 31.0571 91.4679 28.5607 91.4679ZM50.9001 75.9091H6.21787V12.7799H50.9001V75.9091Z" fill="#FC7753"/>
</svg>
