<svg width="287" height="465" viewBox="0 0 287 465" fill="none" xmlns="http://www.w3.org/2000/svg">
<path d="M257.641 44.623C232.399 15.014 193.965 0 143.405 0C92.845 0 54.411 15.014 29.169 44.623C3.789 74.394 0 109.273 0 127.415V337.586C0 355.728 3.789 390.607 29.169 420.378C54.411 449.987 92.845 465 143.405 465C193.965 465 232.399 449.987 257.641 420.378C283.021 390.607 286.81 355.728 286.81 337.586V127.415C286.81 109.273 283.021 74.394 257.641 44.623ZM143.405 162C132.928 162 124.405 153.477 124.405 143V102.284C124.405 91.807 132.928 83.284 143.405 83.284C153.882 83.284 162.405 91.807 162.405 102.284V143C162.405 153.477 153.882 162 143.405 162ZM271.81 337.586C271.81 356.357 265.62 450 143.405 450C21.19 450 15 356.357 15 337.586V127.415C15 109.036 20.953 18.899 135.905 15.136V69.128C120.755 72.554 109.405 86.113 109.405 102.284V143C109.405 159.171 120.755 172.73 135.905 176.156V237.784C135.905 241.927 139.262 245.284 143.405 245.284C147.548 245.284 150.905 241.927 150.905 237.784V176.156C166.055 172.73 177.405 159.171 177.405 143V102.284C177.405 86.113 166.055 72.554 150.905 69.128V15.136C265.858 18.9 271.81 109.036 271.81 127.415V337.586Z" fill="white"/>
</svg>
