<svg width="502" height="433" viewBox="0 0 502 433" fill="none" xmlns="http://www.w3.org/2000/svg">
<path d="M102.947 264.611L111.25 261.437C112.961 260.795 114.365 259.53 115.18 257.895C115.995 256.259 116.16 254.376 115.642 252.624C115.357 251.799 114.906 251.041 114.317 250.397C113.728 249.752 113.014 249.235 112.218 248.876C111.421 248.518 110.56 248.326 109.687 248.313C108.815 248.3 107.948 248.465 107.141 248.799L98.8103 252.001C91.6977 254.92 94.5031 266.566 102.947 264.611Z" fill="#DEAA78"/>
<path d="M104.194 275.348L110.74 272.515C112.136 271.837 113.225 270.659 113.792 269.216C114.359 267.772 114.362 266.168 113.801 264.722C113.572 264.017 113.2 263.367 112.707 262.813C112.214 262.259 111.612 261.813 110.938 261.504C110.264 261.195 109.533 261.03 108.792 261.018C108.051 261.006 107.315 261.148 106.631 261.435L100.057 264.269C93.5115 266.847 96.8835 277.729 104.194 275.348Z" fill="#DEAA78"/>
<path d="M101.559 252.084L113.886 246.813C117.456 245.453 118.164 243.554 117.031 240.069L118.221 237.887C117.939 237.059 117.49 236.298 116.902 235.652C116.314 235.005 115.599 234.486 114.802 234.127C114.005 233.768 113.142 233.577 112.268 233.566C111.394 233.555 110.526 233.723 109.72 234.062L97.3936 239.304C90.3094 242.279 93.1147 253.954 101.559 252.084Z" fill="#E6B07C"/>
<path d="M106.83 237.605C108.105 237.605 111.987 237.067 111.987 237.067C113.774 236.894 115.423 236.03 116.582 234.659C117.741 233.288 118.319 231.519 118.193 229.728C117.853 226.072 123.265 222.615 119.496 223.012L105.583 224.429C95.2967 226.016 97.2519 238.994 106.83 237.605Z" fill="#F5C08C"/>
<path d="M141.656 250.159L128.309 227.234L125.929 247.353L141.656 250.159Z" fill="#F5C08C"/>
<path d="M102.786 292.65L102.668 311.55L135.453 311.756L135.572 292.856L102.786 292.65Z" fill="#EDEDED"/>
<path d="M106.745 325.449C106.492 325.366 106.225 325.333 105.959 325.353C105.693 325.374 105.434 325.447 105.197 325.568C104.96 325.689 104.749 325.856 104.577 326.06C104.405 326.263 104.275 326.499 104.194 326.753C104.106 327.004 104.069 327.27 104.086 327.535C104.102 327.801 104.172 328.06 104.291 328.298C104.41 328.536 104.576 328.748 104.778 328.92C104.981 329.093 105.216 329.223 105.469 329.303C105.963 329.412 106.479 329.334 106.918 329.085C107.357 328.835 107.688 328.432 107.847 327.952C108.005 327.472 107.981 326.951 107.777 326.489C107.573 326.026 107.205 325.656 106.745 325.449Z" fill="#EDEDED"/>
<path d="M106.745 318.903C106.238 318.74 105.687 318.783 105.21 319.021C104.734 319.259 104.369 319.675 104.195 320.178C104.07 320.556 104.059 320.962 104.165 321.345C104.271 321.728 104.487 322.071 104.788 322.332C105.089 322.592 105.46 322.757 105.854 322.807C106.249 322.856 106.649 322.788 107.004 322.61C107.36 322.432 107.655 322.153 107.852 321.808C108.049 321.462 108.139 321.066 108.112 320.67C108.084 320.273 107.939 319.894 107.696 319.579C107.453 319.265 107.122 319.03 106.745 318.903Z" fill="#EDEDED"/>
<path d="M106.745 312.414C106.493 312.331 106.228 312.297 105.964 312.316C105.7 312.335 105.442 312.405 105.205 312.524C104.969 312.642 104.757 312.806 104.584 313.006C104.41 313.206 104.278 313.438 104.194 313.69C104.111 313.941 104.077 314.206 104.096 314.47C104.115 314.734 104.185 314.992 104.304 315.229C104.422 315.466 104.586 315.677 104.786 315.85C104.986 316.024 105.218 316.156 105.469 316.24C105.977 316.402 106.528 316.36 107.004 316.122C107.481 315.883 107.845 315.468 108.02 314.965C108.108 314.714 108.145 314.448 108.128 314.182C108.112 313.917 108.042 313.657 107.923 313.419C107.804 313.181 107.638 312.97 107.436 312.797C107.233 312.624 106.998 312.494 106.745 312.414Z" fill="#EDEDED"/>
<path d="M359.225 231.738L369.285 227.856C371.353 227.08 373.052 225.55 374.04 223.574C375.028 221.598 375.232 219.322 374.612 217.201V217.031C374.269 216.018 373.72 215.088 373 214.298C372.279 213.508 371.402 212.876 370.425 212.442C369.448 212.008 368.391 211.781 367.322 211.776C366.253 211.771 365.194 211.988 364.213 212.412L354.21 216.266C345.709 219.922 348.996 234.09 359.225 231.738Z" fill="#DEAA78"/>
<path d="M360.728 244.717L368.691 241.231C370.371 240.402 371.679 238.972 372.356 237.225C373.033 235.478 373.029 233.54 372.346 231.795C372.067 230.944 371.615 230.16 371.019 229.492C370.422 228.824 369.693 228.286 368.879 227.914C368.064 227.541 367.181 227.341 366.286 227.326C365.39 227.312 364.501 227.482 363.675 227.828L355.712 231.313C347.75 234.431 351.887 247.636 360.728 244.717Z" fill="#DEAA78"/>
<path d="M357.525 216.466L372.459 210.09C376.794 208.447 377.645 206.151 376.284 201.901L377.73 199.294C377.389 198.286 376.844 197.359 376.128 196.571C375.413 195.783 374.542 195.151 373.572 194.715C372.601 194.279 371.55 194.047 370.486 194.036C369.422 194.024 368.367 194.232 367.387 194.647L352.481 201.079C343.924 204.678 347.296 218.818 357.525 216.466Z" fill="#E6B07C"/>
<path d="M363.93 199.01C365.488 199.01 370.164 198.358 370.164 198.358C372.335 198.156 374.34 197.111 375.749 195.448C377.158 193.784 377.859 191.635 377.702 189.46V189.29C377.277 184.87 383.851 180.789 379.26 181.186L362.428 182.858C349.96 184.955 352.34 200.71 363.93 199.01Z" fill="#F5C08C"/>
<path d="M406.123 214.226L389.943 186.428L387.081 210.826L406.123 214.226Z" fill="#F5C08C"/>
<path d="M359.038 265.697L358.894 288.593L398.593 288.842L398.737 265.946L359.038 265.697Z" fill="#EDEDED"/>
<path d="M23.5481 359.763L31.0007 356.93C32.5351 356.352 33.7956 355.218 34.5308 353.753C35.2661 352.288 35.4221 350.599 34.9679 349.024C34.7219 348.274 34.322 347.583 33.7938 346.997C33.2656 346.411 32.6207 345.941 31.9004 345.618C31.1801 345.295 30.4004 345.126 29.6111 345.123C28.8218 345.119 28.0404 345.28 27.3169 345.595L19.8643 348.429C13.4602 350.951 15.9822 361.435 23.5481 359.763Z" fill="#DEAA78"/>
<path d="M24.681 369.314L30.5751 366.736C31.8184 366.122 32.7935 365.073 33.3158 363.788C33.838 362.504 33.8711 361.072 33.4088 359.765C33.1902 359.143 32.8465 358.573 32.3989 358.09C31.9513 357.607 31.4093 357.22 30.8064 356.955C30.2035 356.689 29.5525 356.55 28.8938 356.546C28.235 356.542 27.5824 356.673 26.9763 356.931L21.0822 359.51C15.0465 361.72 18.1352 371.468 24.681 369.314Z" fill="#DEAA78"/>
<path d="M22.3011 348.431L33.3525 343.727C36.5546 342.48 37.2063 340.893 36.1862 337.635L37.263 335.708C37.02 334.955 36.6223 334.262 36.0954 333.672C35.5684 333.083 34.9239 332.61 34.2033 332.284C33.4827 331.959 32.702 331.787 31.9112 331.782C31.1205 331.776 30.3373 331.936 29.612 332.251L18.5607 337.096C12.2132 339.675 14.7352 350.131 22.3011 348.431Z" fill="#E6B07C"/>
<path d="M27.0336 335.481C28.1954 335.481 31.6808 334.971 31.6808 334.971C33.2973 334.833 34.7957 334.068 35.855 332.839C36.9143 331.611 37.4503 330.016 37.3482 328.397C37.0365 325.11 41.9104 321.993 38.5383 322.361L26.0418 323.636C16.6906 325.053 18.4759 336.728 27.0336 335.481Z" fill="#F5C08C"/>
<path d="M58.289 346.731L46.3308 326.158L44.1772 344.237L58.289 346.731Z" fill="#F5C08C"/>
<path fill-rule="evenodd" clip-rule="evenodd" d="M2.83368 322.02V295.128C28.7052 285.862 54.5484 306.633 80.4199 297.395V324.258C54.5484 333.525 28.7052 312.754 2.83368 322.02ZM0 325.93C27.7417 313.604 55.4551 338.285 83.1969 325.93V293.456C55.4551 305.924 27.7417 281.101 0 293.456V325.93Z" fill="#6B8756"/>
<path d="M22.7761 385.268L22.6694 402.242L52.0825 402.426L52.1891 385.453L22.7761 385.268Z" fill="#EDEDED"/>
<path d="M26.9762 414.285C26.6364 414.169 26.2699 414.157 25.9231 414.249C25.5763 414.342 25.2647 414.535 25.0279 414.805C24.7911 415.075 24.6397 415.409 24.5929 415.765C24.5461 416.121 24.6059 416.483 24.7649 416.804C24.9238 417.126 25.1747 417.394 25.4858 417.573C25.7968 417.752 26.1541 417.835 26.5123 417.811C26.8704 417.787 27.2134 417.657 27.4978 417.438C27.7822 417.219 27.9951 416.92 28.1097 416.58C28.2552 416.125 28.2183 415.632 28.0069 415.203C27.7954 414.775 27.4259 414.446 26.9762 414.285Z" fill="#EDEDED"/>
<path d="M26.9768 408.419C26.5221 408.266 26.0252 408.299 25.595 408.512C25.1648 408.724 24.8363 409.098 24.6815 409.552C24.6017 409.777 24.5679 410.016 24.582 410.254C24.596 410.492 24.6577 410.725 24.7634 410.939C24.8691 411.153 25.0166 411.344 25.1972 411.5C25.3778 411.656 25.5879 411.774 25.815 411.848C26.2605 411.969 26.7354 411.915 27.1429 411.698C27.5503 411.481 27.8597 411.117 28.0078 410.679C28.156 410.242 28.1318 409.765 27.9402 409.345C27.7487 408.925 27.4041 408.594 26.9768 408.419Z" fill="#EDEDED"/>
<path d="M26.9767 402.583C26.5219 402.43 26.0251 402.463 25.5949 402.675C25.1647 402.888 24.8362 403.262 24.6814 403.716C24.5877 403.945 24.5418 404.191 24.5467 404.439C24.5517 404.686 24.6072 404.93 24.7099 405.155C24.8126 405.381 24.9604 405.582 25.1441 405.748C25.3278 405.914 25.5435 406.041 25.7779 406.12C26.0124 406.2 26.2606 406.23 26.5074 406.21C26.7541 406.19 26.9941 406.12 27.2126 406.003C27.4311 405.887 27.6234 405.727 27.7778 405.534C27.9322 405.34 28.0453 405.117 28.1101 404.878C28.2632 404.423 28.2299 403.926 28.0175 403.496C27.805 403.066 27.4308 402.738 26.9767 402.583Z" fill="#EDEDED"/>
<path d="M441.743 325.136L449.224 322.303C450.757 321.726 452.015 320.59 452.746 319.123C453.476 317.657 453.625 315.968 453.162 314.397C452.917 313.643 452.516 312.949 451.986 312.36C451.456 311.771 450.808 311.3 450.084 310.977C449.361 310.654 448.577 310.486 447.785 310.485C446.992 310.483 446.208 310.648 445.483 310.968L438.031 313.802C431.683 316.38 434.177 326.865 441.743 325.136Z" fill="#DEAA78"/>
<path d="M442.876 334.744L448.77 332.165C450.013 331.551 450.988 330.503 451.51 329.218C452.033 327.933 452.066 326.502 451.603 325.194C451.382 324.572 451.035 324.001 450.585 323.518C450.134 323.034 449.59 322.648 448.985 322.382C448.38 322.117 447.727 321.978 447.066 321.974C446.405 321.971 445.751 322.102 445.143 322.361L439.277 324.939C433.269 327.15 436.386 336.926 442.876 334.744Z" fill="#DEAA78"/>
<path d="M440.496 313.832L451.576 309.128C452.223 309.015 452.834 308.748 453.356 308.349C453.878 307.95 454.296 307.43 454.574 306.835C454.853 306.239 454.983 305.586 454.954 304.929C454.925 304.272 454.739 303.632 454.409 303.064L455.515 301.108C455.269 300.355 454.868 299.661 454.338 299.072C453.808 298.483 453.16 298.012 452.436 297.689C451.713 297.365 450.929 297.198 450.137 297.196C449.344 297.195 448.56 297.359 447.835 297.68L436.784 302.384C430.436 305.104 432.93 315.588 440.496 313.832Z" fill="#E6B07C"/>
<path d="M445.228 300.909C446.39 300.909 449.875 300.399 449.875 300.399C451.495 300.269 452.998 299.506 454.058 298.275C455.119 297.045 455.652 295.446 455.543 293.825C455.259 290.538 460.105 287.421 456.733 287.789L444.236 289.065C434.914 290.481 436.671 302.156 445.228 300.909Z" fill="#F5C08C"/>
<path d="M476.512 312.159L464.525 291.587L462.4 309.666L476.512 312.159Z" fill="#F5C08C"/>
<path fill-rule="evenodd" clip-rule="evenodd" d="M421 287.449V260.586C446.872 251.32 472.743 272.119 498.586 262.853V289.716C472.743 298.982 446.872 278.211 421 287.477V287.449ZM418.167 291.36C445.908 279.033 473.65 303.714 501.363 291.36V258.886C473.65 271.24 445.908 246.531 418.167 258.886V291.36Z" fill="#6B8756"/>
<path fill-rule="evenodd" clip-rule="evenodd" d="M79.8248 222.613V192.576C108.643 182.233 137.462 205.385 166.28 195.07V225.107C137.462 235.422 108.643 212.412 79.8248 222.613ZM76.6794 226.977C107.68 213.234 138.51 240.749 169.426 226.977V190.791C138.51 204.535 107.595 177.019 76.6794 190.791V226.977Z" fill="#ECECEC"/>
<path fill-rule="evenodd" clip-rule="evenodd" d="M161.52 224.683C161.514 223.982 161.717 223.294 162.103 222.708C162.489 222.122 163.04 221.663 163.687 221.391C164.333 221.118 165.047 221.044 165.735 221.178C166.424 221.311 167.058 221.646 167.556 222.14C168.055 222.635 168.395 223.266 168.534 223.953C168.673 224.641 168.604 225.355 168.337 226.004C168.07 226.653 167.616 227.208 167.033 227.598C166.45 227.989 165.764 228.197 165.062 228.197C164.127 228.197 163.231 227.828 162.567 227.17C161.904 226.512 161.527 225.618 161.52 224.683Z" fill="#ECECEC"/>
<path fill-rule="evenodd" clip-rule="evenodd" d="M161.519 196.912C161.508 196.209 161.706 195.519 162.089 194.929C162.471 194.339 163.02 193.876 163.666 193.599C164.313 193.322 165.026 193.244 165.717 193.374C166.408 193.504 167.044 193.837 167.546 194.33C168.047 194.823 168.39 195.454 168.531 196.143C168.672 196.831 168.605 197.547 168.339 198.197C168.073 198.848 167.619 199.404 167.035 199.796C166.452 200.188 165.765 200.397 165.062 200.397C164.132 200.397 163.239 200.032 162.577 199.38C161.914 198.728 161.534 197.841 161.519 196.912Z" fill="#ECECEC"/>
<path fill-rule="evenodd" clip-rule="evenodd" d="M78.0113 193.399C78.0057 192.698 78.2087 192.01 78.5945 191.424C78.9803 190.838 79.5315 190.379 80.1782 190.107C80.8249 189.834 81.538 189.76 82.2269 189.894C82.9159 190.027 83.5497 190.362 84.0479 190.856C84.5461 191.351 84.8863 191.982 85.0253 192.67C85.1643 193.357 85.0958 194.071 84.8285 194.72C84.5613 195.369 84.1073 195.924 83.5242 196.314C82.9411 196.705 82.2552 196.913 81.5534 196.913C81.0896 196.917 80.6297 196.829 80.2001 196.654C79.7705 196.479 79.3798 196.221 79.0505 195.894C78.7212 195.567 78.4599 195.179 78.2815 194.751C78.1031 194.322 78.0113 193.863 78.0113 193.399Z" fill="#ECECEC"/>
<path d="M81.5533 224.684C83.5096 224.684 85.0954 223.111 85.0954 221.17C85.0954 219.23 83.5096 217.657 81.5533 217.657C79.5971 217.657 78.0112 219.23 78.0112 221.17C78.0112 223.111 79.5971 224.684 81.5533 224.684Z" fill="#ECECEC"/>
<path fill-rule="evenodd" clip-rule="evenodd" d="M331.201 180.846V144.546C366.112 132.05 401.023 160.103 436.047 147.607V183.878C401.108 196.374 366.197 168.349 331.201 180.846ZM327.432 186.145C364.865 169.483 402.298 202.807 439.731 186.145V142.279C402.298 158.97 364.865 125.617 327.432 142.279V186.145Z" fill="#ECECEC"/>
<path fill-rule="evenodd" clip-rule="evenodd" d="M430.124 183.369C430.113 182.521 430.355 181.688 430.818 180.977C431.281 180.266 431.945 179.709 432.726 179.376C433.507 179.043 434.369 178.951 435.203 179.109C436.036 179.268 436.804 179.671 437.408 180.267C438.012 180.863 438.426 181.625 438.595 182.457C438.765 183.288 438.684 184.152 438.362 184.937C438.039 185.722 437.491 186.394 436.786 186.866C436.081 187.339 435.252 187.591 434.403 187.592C433.278 187.592 432.198 187.149 431.398 186.358C430.597 185.568 430.139 184.494 430.124 183.369Z" fill="#ECECEC"/>
<path fill-rule="evenodd" clip-rule="evenodd" d="M430.125 149.705C430.119 148.857 430.365 148.027 430.832 147.32C431.299 146.613 431.965 146.06 432.746 145.732C433.528 145.403 434.389 145.315 435.221 145.477C436.053 145.638 436.818 146.044 437.419 146.641C438.02 147.238 438.431 148.001 438.598 148.831C438.765 149.662 438.682 150.524 438.359 151.307C438.036 152.091 437.488 152.761 436.784 153.232C436.079 153.704 435.251 153.955 434.403 153.955C433.843 153.959 433.287 153.852 432.768 153.64C432.249 153.428 431.777 153.116 431.38 152.721C430.982 152.326 430.666 151.856 430.451 151.338C430.236 150.821 430.125 150.266 430.125 149.705Z" fill="#ECECEC"/>
<path d="M333.297 149.731C335.66 149.731 337.576 147.828 337.576 145.481C337.576 143.133 335.66 141.23 333.297 141.23C330.934 141.23 329.018 143.133 329.018 145.481C329.018 147.828 330.934 149.731 333.297 149.731Z" fill="#ECECEC"/>
<path fill-rule="evenodd" clip-rule="evenodd" d="M329.018 179.118C329.013 178.271 329.259 177.441 329.726 176.733C330.192 176.026 330.859 175.473 331.64 175.145C332.421 174.817 333.283 174.728 334.115 174.89C334.946 175.052 335.711 175.457 336.313 176.054C336.914 176.651 337.324 177.414 337.492 178.245C337.659 179.075 337.576 179.937 337.253 180.721C336.93 181.504 336.382 182.174 335.677 182.646C334.973 183.117 334.145 183.369 333.297 183.369C332.167 183.369 331.083 182.922 330.282 182.125C329.48 181.329 329.026 180.248 329.018 179.118Z" fill="#ECECEC"/>
<path fill-rule="evenodd" clip-rule="evenodd" d="M33.2673 307.908C33.2673 301.561 37.0078 297.14 41.5984 298.189C46.1889 299.237 49.9294 305.131 49.9294 311.479C49.9294 317.826 46.1889 322.247 41.5984 321.198C37.0078 320.15 33.2673 314.256 33.2673 307.908Z" fill="#ECECEC"/>
<path fill-rule="evenodd" clip-rule="evenodd" d="M76.0841 323.861C76.0787 323.236 76.2582 322.623 76.5999 322.099C76.9416 321.575 77.4303 321.164 78.0048 320.918C78.5792 320.671 79.2138 320.599 79.8288 320.712C80.4438 320.824 81.0119 321.116 81.4618 321.55C81.9117 321.984 82.2233 322.542 82.3575 323.152C82.4917 323.763 82.4425 324.4 82.2162 324.982C81.9898 325.565 81.5963 326.068 81.0852 326.428C80.574 326.788 79.9678 326.989 79.3428 327.006C78.9213 327.017 78.5018 326.945 78.1087 326.792C77.7157 326.639 77.357 326.41 77.0536 326.117C76.7502 325.824 76.5082 325.474 76.3418 325.086C76.1753 324.699 76.0877 324.282 76.0841 323.861Z" fill="#ECECEC"/>
<path fill-rule="evenodd" clip-rule="evenodd" d="M76.0841 298.953C76.0787 298.327 76.2582 297.714 76.5999 297.191C76.9416 296.667 77.4303 296.256 78.0048 296.009C78.5792 295.763 79.2138 295.691 79.8288 295.803C80.4438 295.916 81.0119 296.208 81.4618 296.642C81.9117 297.076 82.2233 297.633 82.3575 298.244C82.4917 298.855 82.4425 299.492 82.2162 300.074C81.9898 300.657 81.5963 301.16 81.0852 301.52C80.574 301.88 79.9678 302.081 79.3428 302.098C78.9213 302.109 78.5018 302.036 78.1087 301.884C77.7157 301.731 77.357 301.502 77.0536 301.209C76.7502 300.916 76.5082 300.566 76.3418 300.178C76.1753 299.791 76.0877 299.374 76.0841 298.953Z" fill="#ECECEC"/>
<path fill-rule="evenodd" clip-rule="evenodd" d="M451.491 273.337C451.491 266.989 455.203 262.569 459.793 263.617C464.384 264.666 468.124 270.56 468.124 276.907C468.124 283.255 464.412 287.675 459.793 286.627C455.174 285.578 451.491 279.684 451.491 273.337Z" fill="#ECECEC"/>
<path fill-rule="evenodd" clip-rule="evenodd" d="M419.385 261.239C419.379 260.61 419.561 259.993 419.906 259.468C420.251 258.942 420.745 258.531 421.324 258.286C421.904 258.042 422.543 257.975 423.16 258.094C423.778 258.213 424.346 258.513 424.793 258.956C425.239 259.399 425.544 259.964 425.669 260.581C425.794 261.197 425.733 261.837 425.493 262.418C425.254 263 424.847 263.497 424.325 263.847C423.802 264.197 423.188 264.384 422.559 264.384C421.722 264.384 420.919 264.054 420.324 263.464C419.73 262.875 419.392 262.075 419.385 261.239Z" fill="#ECECEC"/>
<path fill-rule="evenodd" clip-rule="evenodd" d="M419.385 286.089C419.373 285.459 419.55 284.84 419.892 284.311C420.233 283.782 420.725 283.366 421.304 283.117C421.883 282.868 422.523 282.797 423.142 282.913C423.761 283.029 424.332 283.327 424.782 283.768C425.231 284.21 425.539 284.775 425.666 285.392C425.793 286.01 425.734 286.651 425.495 287.234C425.257 287.817 424.85 288.316 424.327 288.667C423.804 289.019 423.188 289.206 422.558 289.206C422.145 289.21 421.735 289.132 421.352 288.978C420.969 288.823 420.621 288.595 420.326 288.305C420.031 288.016 419.796 287.671 419.635 287.291C419.473 286.911 419.388 286.502 419.385 286.089Z" fill="#ECECEC"/>
<path d="M445.171 379.601C444.944 379.524 444.704 379.494 444.466 379.51C444.227 379.526 443.993 379.59 443.779 379.696C443.564 379.803 443.373 379.951 443.216 380.131C443.058 380.312 442.938 380.521 442.862 380.748C442.786 380.975 442.755 381.215 442.771 381.454C442.788 381.693 442.851 381.926 442.957 382.141C443.064 382.355 443.212 382.547 443.392 382.704C443.573 382.861 443.782 382.982 444.009 383.058C444.468 383.212 444.969 383.178 445.402 382.962C445.835 382.747 446.165 382.369 446.319 381.91C446.473 381.452 446.439 380.951 446.223 380.518C446.008 380.085 445.63 379.755 445.171 379.601Z" fill="#EDEDED"/>
<path d="M445.171 373.932C444.831 373.822 444.465 373.815 444.12 373.912C443.775 374.009 443.467 374.206 443.234 374.478C443.001 374.75 442.854 375.085 442.811 375.441C442.768 375.797 442.832 376.157 442.994 376.476C443.155 376.796 443.408 377.061 443.72 377.237C444.032 377.413 444.389 377.493 444.746 377.466C445.104 377.439 445.445 377.308 445.727 377.087C446.01 376.867 446.221 376.568 446.333 376.228C446.408 376.001 446.438 375.761 446.42 375.523C446.402 375.284 446.338 375.052 446.23 374.838C446.122 374.625 445.973 374.435 445.791 374.28C445.609 374.124 445.399 374.006 445.171 373.932Z" fill="#EDEDED"/>
<path d="M445.171 368.011C444.831 367.9 444.465 367.893 444.12 367.99C443.775 368.087 443.467 368.284 443.234 368.556C443.001 368.828 442.854 369.163 442.811 369.519C442.768 369.875 442.832 370.235 442.994 370.555C443.155 370.874 443.408 371.139 443.72 371.315C444.032 371.491 444.389 371.571 444.746 371.544C445.104 371.517 445.445 371.386 445.727 371.165C446.01 370.945 446.221 370.646 446.333 370.306C446.408 370.079 446.438 369.839 446.42 369.601C446.402 369.362 446.338 369.13 446.23 368.917C446.122 368.703 445.973 368.513 445.791 368.358C445.609 368.202 445.399 368.084 445.171 368.011Z" fill="#EDEDED"/>
<path d="M181.356 159.878C181.342 159.774 181.342 159.67 181.356 159.566C181.356 159.198 181.356 158.829 181.356 158.461C181.327 158.15 181.327 157.837 181.356 157.526C181.356 157.214 181.356 156.902 181.356 156.562C181.356 156.222 181.356 155.854 181.554 155.514C181.752 155.174 181.554 155.287 181.554 155.174L192.209 117.231C192.377 116.571 192.625 115.933 192.945 115.332C190.4 115.159 187.884 115.962 185.91 117.579C183.936 119.195 182.652 121.502 182.319 124.032L177.247 163.08V163.448C177.247 163.817 177.247 164.157 177.247 164.525C177.247 164.893 177.247 165.177 177.247 165.489L177.417 166.395C177.417 166.764 177.587 167.104 177.7 167.472C177.687 167.585 177.687 167.699 177.7 167.812L191.075 204.848L191.245 205.132L181.356 159.878Z" fill="#EBAE73"/>
<path d="M192.208 117.23L181.554 155.173C181.554 155.173 181.554 155.4 181.554 155.513C181.554 155.626 181.554 156.221 181.355 156.561C181.157 156.901 181.355 157.213 181.355 157.525C181.32 157.873 181.32 158.225 181.355 158.573C181.355 158.942 181.355 159.31 181.355 159.678C181.341 159.782 181.341 159.887 181.355 159.99L191.301 205.329C191.496 205.89 191.723 206.439 191.982 206.973L189.856 162.37L188.978 152.396C188.964 152.283 188.964 152.169 188.978 152.056C188.978 151.687 188.978 151.319 188.978 150.951V150.016C188.978 149.704 188.978 149.392 189.176 149.081C189.375 148.769 189.375 148.372 189.488 148.06C189.601 147.749 189.488 147.834 189.488 147.72L204.365 111.251C204.506 110.939 204.676 110.684 204.818 110.429L204.79 110.401H204.591C202.363 109.778 199.988 109.942 197.866 110.866C195.745 111.79 194.007 113.417 192.945 115.473C192.634 116.029 192.387 116.619 192.208 117.23Z" fill="#EBAE73"/>
<path d="M194.787 210.883L193.229 209.07C193.65 209.752 194.176 210.364 194.787 210.883Z" fill="#F4D3B0"/>
<path d="M189.856 147.777C189.856 147.777 189.856 148.004 189.856 148.117C189.856 148.231 189.658 148.797 189.545 149.137C189.431 149.477 189.545 149.761 189.346 150.073V151.008C189.346 151.376 189.346 151.744 189.346 152.113C189.332 152.226 189.332 152.34 189.346 152.453L190.225 162.427L192.038 206.746V207.653L193.2 208.956L194.759 210.77L249.364 273.309L282.801 258.404L283.736 244.547L293.286 190.141L293.456 189.404C293.512 188.754 293.512 188.099 293.456 187.449C293.456 187.449 293.456 187.222 293.456 187.109V186.627L292.067 140.806C291.964 137.587 290.586 134.54 288.238 132.335C285.89 130.13 282.762 128.947 279.542 129.047H279.401C276.179 129.15 273.129 130.527 270.92 132.874C268.71 135.222 267.521 138.349 267.613 141.572L268.803 179.968L257.468 195.213L237.349 201.504L214.339 181.243L209.692 152.906L223.521 118.902C224.531 116.433 224.52 113.664 223.489 111.204C222.458 108.743 220.492 106.793 218.023 105.782H217.825C215.518 104.834 212.94 104.782 210.596 105.637C208.253 106.491 206.314 108.191 205.158 110.401C205.017 110.656 204.847 110.911 204.705 111.223L189.856 147.777Z" fill="#FFCF9F"/>
<path d="M277.304 305.925C278.01 305.691 278.77 305.67 279.488 305.867C280.206 306.064 280.849 306.469 281.337 307.031C281.825 307.593 282.136 308.287 282.23 309.025C282.325 309.763 282.198 310.513 281.867 311.179C281.536 311.846 281.014 312.399 280.369 312.77C279.723 313.141 278.983 313.312 278.24 313.262C277.497 313.213 276.786 312.944 276.196 312.491C275.606 312.037 275.163 311.419 274.923 310.714C274.764 310.244 274.698 309.746 274.732 309.25C274.765 308.754 274.896 308.27 275.117 307.824C275.338 307.379 275.645 306.982 276.021 306.656C276.396 306.331 276.832 306.082 277.304 305.925Z" fill="#EDEDED"/>
<path d="M277.701 293.57C278.407 293.328 279.169 293.301 279.891 293.493C280.612 293.684 281.261 294.086 281.754 294.647C282.246 295.208 282.562 295.902 282.659 296.642C282.757 297.383 282.632 298.135 282.302 298.804C281.971 299.474 281.449 300.03 280.802 300.402C280.155 300.774 279.411 300.946 278.667 300.895C277.922 300.844 277.209 300.573 276.618 300.117C276.027 299.66 275.586 299.039 275.349 298.331C275.033 297.387 275.103 296.357 275.544 295.466C275.985 294.574 276.76 293.892 277.701 293.57Z" fill="#EDEDED"/>
<path d="M277.701 281.441C278.408 281.204 279.17 281.182 279.889 281.378C280.609 281.575 281.254 281.98 281.743 282.543C282.232 283.106 282.543 283.802 282.637 284.542C282.73 285.282 282.602 286.033 282.268 286.7C281.935 287.367 281.411 287.92 280.763 288.289C280.115 288.658 279.372 288.827 278.628 288.774C277.884 288.72 277.172 288.447 276.584 287.989C275.995 287.531 275.555 286.909 275.32 286.201C275.161 285.733 275.096 285.237 275.13 284.743C275.163 284.249 275.295 283.767 275.516 283.324C275.737 282.881 276.045 282.486 276.42 282.163C276.795 281.84 277.23 281.594 277.701 281.441Z" fill="#EDEDED"/>
<path d="M255.032 146.812C255.032 148.796 250.979 150.383 245.964 150.383C240.948 150.383 236.896 148.796 236.896 146.812C236.896 144.829 240.948 143.242 245.964 143.242C250.979 143.242 255.032 144.829 255.032 146.812Z" fill="#575756"/>
<path d="M254.89 146.955H236.754L223.917 141.543H267.726L254.89 146.955Z" fill="#9D9D9C"/>
<path d="M291.869 48.0599C291.869 19.7231 268.293 -2.94633 240.466 0.312399C230.396 1.70368 221.048 6.32176 213.824 13.4742C206.6 20.6267 201.89 29.9281 200.398 39.9839C199.156 47.5262 199.684 55.254 201.942 62.5571C204.199 69.8601 208.123 76.5382 213.405 82.0641C220.019 88.7341 223.77 97.721 223.861 107.114V107.766H267.726V107.341C267.757 97.941 271.47 88.9279 278.069 82.2341C286.952 73.0797 291.904 60.8156 291.869 48.0599Z" fill="#FC7753"/>
<path d="M241.344 109.89C241.048 109.89 240.754 109.831 240.481 109.717C240.207 109.602 239.959 109.435 239.751 109.224C239.543 109.013 239.379 108.763 239.268 108.488C239.157 108.213 239.102 107.919 239.106 107.623C239.276 79.2859 230.18 66.7893 218.25 53.3294C218.052 53.1061 217.901 52.8461 217.804 52.5644C217.708 52.2826 217.667 51.9846 217.686 51.6872C217.704 51.3899 217.781 51.0991 217.912 50.8314C218.043 50.5638 218.225 50.3245 218.448 50.1273C218.671 49.9301 218.931 49.7787 219.213 49.682C219.495 49.5852 219.793 49.5449 220.09 49.5633C220.388 49.5817 220.678 49.6585 220.946 49.7893C221.214 49.9201 221.453 50.1024 221.65 50.3256C236.329 66.9594 243.696 80.3627 243.696 107.566C243.704 107.876 243.649 108.184 243.533 108.471C243.417 108.759 243.244 109.019 243.023 109.237C242.803 109.455 242.54 109.625 242.251 109.737C241.963 109.849 241.654 109.901 241.344 109.89Z" fill="white"/>
<path d="M250.299 109.89C250.003 109.893 249.709 109.838 249.434 109.727C249.159 109.617 248.909 109.452 248.698 109.244C248.487 109.036 248.32 108.788 248.205 108.514C248.091 108.241 248.032 107.947 248.032 107.651C247.862 80.3627 255.287 66.931 270.022 50.3256C270.42 49.8747 270.981 49.6005 271.582 49.5633C272.182 49.5261 272.773 49.729 273.224 50.1273C273.675 50.5256 273.949 51.0867 273.986 51.6872C274.023 52.2877 273.82 52.8784 273.422 53.3294C261.492 66.7893 252.396 79.2292 252.566 107.566C252.57 107.862 252.515 108.157 252.404 108.431C252.293 108.706 252.129 108.956 251.921 109.167C251.712 109.378 251.464 109.546 251.191 109.66C250.917 109.774 250.624 109.833 250.328 109.833L250.299 109.89Z" fill="white"/>
<path d="M271.722 54.0951C270.57 54.0771 269.437 53.8003 268.407 53.2853C267.377 52.7702 266.476 52.0301 265.771 51.1197C264.722 50.0429 264.241 49.5612 263.107 49.5612C261.974 49.5612 261.464 50.0429 260.415 51.1197C259.721 52.041 258.822 52.7884 257.789 53.3031C256.756 53.8178 255.618 54.0857 254.464 54.0857C253.311 54.0857 252.173 53.8178 251.14 53.3031C250.107 52.7884 249.208 52.041 248.514 51.1197C247.494 50.0429 246.984 49.5612 245.85 49.5612C244.717 49.5612 244.207 50.0429 243.186 51.1197C242.475 52.0308 241.569 52.7709 240.535 53.2858C239.5 53.8007 238.363 54.0772 237.207 54.0951C236.055 54.0812 234.921 53.8062 233.89 53.2909C232.86 52.7755 231.959 52.0332 231.257 51.1197C230.208 50.0429 229.698 49.5612 228.423 49.5612C227.148 49.5612 226.779 50.0429 225.589 51.1197C224.887 52.0332 223.986 52.7755 222.956 53.2909C221.925 53.8062 220.791 54.0812 219.639 54.0951C219.037 54.0951 218.461 53.8562 218.036 53.4311C217.61 53.006 217.372 52.4294 217.372 51.8281C217.372 51.2269 217.61 50.6503 218.036 50.2251C218.461 49.8 219.037 49.5612 219.639 49.5612C220.772 49.5612 221.282 49.0794 222.302 48.0026C223.003 47.0808 223.907 46.3333 224.944 45.8188C225.981 45.3042 227.123 45.0365 228.281 45.0365C229.439 45.0365 230.581 45.3042 231.618 45.8188C232.656 46.3333 233.56 47.0808 234.26 48.0026C235.28 49.0794 235.791 49.5612 236.924 49.5612C238.057 49.5612 238.568 49.0794 239.758 48.0026C240.449 47.0763 241.347 46.324 242.38 45.8058C243.413 45.2876 244.553 45.0178 245.708 45.0178C246.864 45.0178 248.004 45.2876 249.037 45.8058C250.07 46.324 250.968 47.0763 251.659 48.0026C252.708 49.0794 253.189 49.5612 254.323 49.5612C255.456 49.5612 255.966 49.0794 256.986 48.0026C257.682 47.0293 258.601 46.2369 259.666 45.6921C260.731 45.1472 261.911 44.8658 263.108 44.8713C264.304 44.8769 265.482 45.1693 266.542 45.724C267.602 46.2787 268.513 47.0795 269.2 48.0593C270.22 49.1361 270.73 49.6178 271.863 49.6178C272.465 49.6178 273.041 49.8567 273.466 50.2818C273.891 50.707 274.13 51.2836 274.13 51.8848C274.13 52.486 273.891 53.0626 273.466 53.4878C273.041 53.9129 272.465 54.1517 271.863 54.1517L271.722 54.0951Z" fill="white"/>
<path opacity="0.5" d="M239.531 3.34427C230.937 5.31105 223.07 9.65774 216.831 15.8869C210.592 22.116 206.233 29.9759 204.252 38.5669C201.192 54.0105 208.248 72.2027 219.044 79.7403C206.859 53.9255 215.36 21.5648 239.531 3.34427Z" fill="#FFAF9F"/>
<path d="M363.816 305.416C363.2 305.213 362.528 305.263 361.949 305.555C361.37 305.848 360.93 306.358 360.727 306.974C360.524 307.591 360.574 308.262 360.867 308.842C361.159 309.421 361.669 309.86 362.286 310.063C362.589 310.169 362.91 310.214 363.231 310.194C363.551 310.175 363.865 310.091 364.152 309.949C364.44 309.806 364.697 309.607 364.906 309.364C365.116 309.121 365.275 308.838 365.374 308.533C365.581 307.913 365.533 307.236 365.24 306.652C364.948 306.067 364.436 305.623 363.816 305.416Z" fill="#EDEDED"/>
<path d="M363.817 297.423C363.36 297.277 362.87 297.268 362.409 297.399C361.947 297.53 361.534 297.793 361.222 298.158C360.91 298.522 360.712 298.97 360.653 299.446C360.595 299.922 360.678 300.405 360.892 300.834C361.107 301.263 361.443 301.619 361.859 301.858C362.275 302.096 362.752 302.207 363.231 302.176C363.71 302.144 364.168 301.972 364.55 301.682C364.931 301.391 365.218 300.994 365.375 300.54C365.481 300.234 365.525 299.909 365.504 299.585C365.483 299.261 365.397 298.944 365.252 298.654C365.106 298.364 364.905 298.105 364.658 297.894C364.412 297.683 364.126 297.523 363.817 297.423Z" fill="#EDEDED"/>
<path d="M363.817 289.603C363.36 289.456 362.87 289.448 362.409 289.579C361.947 289.709 361.534 289.973 361.222 290.337C360.91 290.701 360.712 291.149 360.653 291.626C360.595 292.102 360.678 292.584 360.892 293.013C361.107 293.442 361.443 293.799 361.859 294.037C362.275 294.276 362.752 294.387 363.231 294.355C363.71 294.324 364.168 294.152 364.55 293.861C364.931 293.57 365.218 293.173 365.375 292.72C365.481 292.413 365.525 292.088 365.504 291.764C365.483 291.44 365.397 291.124 365.252 290.834C365.106 290.543 364.905 290.285 364.658 290.074C364.412 289.862 364.126 289.702 363.817 289.603Z" fill="#EDEDED"/>
<path d="M464.724 221.482L463.874 220.15C464.867 219.806 465.818 219.35 466.707 218.79C467.629 218.194 468.484 217.5 469.258 216.721L470.108 218.053C470.252 218.245 470.331 218.479 470.331 218.719C470.331 218.959 470.252 219.193 470.108 219.385L469.881 219.583L466.424 221.794H466.112C465.88 221.908 465.615 221.939 465.363 221.883C465.11 221.826 464.885 221.685 464.724 221.482Z" fill="white"/>
<path d="M255.853 169.144L258.347 167.359L257.214 163.93H254.153L252.198 161.607L252.935 158.773L249.874 156.874L247.551 158.858L244.717 158.263L243.357 155.429L239.843 155.741L239.305 158.773L236.698 160.19L233.864 158.943L231.455 161.607L233.014 164.27L231.909 167.104L229.075 167.954V171.524L231.909 172.573L232.844 175.407L231.115 177.929L233.354 180.762L236.188 179.714L238.71 181.272L239.05 184.333L242.564 185.069L244.094 182.236L246.927 181.839L249.138 183.964L252.283 182.264L251.745 179.232L253.728 177.022L256.789 177.22L258.12 173.876L255.768 171.921L255.853 169.144ZM243.697 177.475C242.261 177.481 240.856 177.06 239.659 176.266C238.462 175.473 237.528 174.342 236.975 173.017C236.421 171.692 236.274 170.232 236.55 168.823C236.827 167.414 237.516 166.119 238.529 165.102C239.543 164.084 240.835 163.39 242.243 163.108C243.651 162.826 245.111 162.968 246.438 163.516C247.765 164.064 248.9 164.994 249.698 166.188C250.497 167.381 250.923 168.785 250.923 170.221C250.923 172.14 250.163 173.981 248.808 175.34C247.454 176.7 245.616 177.468 243.697 177.475Z" fill="#C8C8C8"/>
<path d="M466.339 222.047L469.796 219.836C469.884 219.786 469.961 219.718 470.023 219.638L482.009 236.895C482.143 237.09 482.236 237.31 482.282 237.542C482.328 237.774 482.325 238.013 482.275 238.244C482.224 238.476 482.127 238.694 481.988 238.886C481.85 239.078 481.674 239.239 481.471 239.36L479.204 240.834C479.006 240.963 478.784 241.051 478.552 241.092C478.319 241.133 478.081 241.127 477.851 241.074C477.621 241.021 477.404 240.923 477.213 240.784C477.021 240.645 476.86 240.47 476.739 240.267L466.056 222.188L466.339 222.047Z" fill="#C8C8C8"/>
<path d="M62.7943 266.509L59.1105 264.129L58.8555 263.931L46.1039 282.293C45.9592 282.501 45.8588 282.735 45.8089 282.983C45.759 283.231 45.7607 283.487 45.8139 283.734C45.867 283.981 45.9705 284.215 46.1179 284.42C46.2653 284.626 46.4535 284.799 46.6706 284.928L49.0792 286.487C49.2897 286.626 49.5262 286.722 49.7745 286.767C50.0228 286.813 50.2777 286.808 50.524 286.752C50.7702 286.696 51.0026 286.592 51.2072 286.444C51.4119 286.296 51.5844 286.108 51.7146 285.892L63.0493 266.623L62.7943 266.509Z" fill="#C8C8C8"/>
<path d="M64.6365 265.884L65.5432 264.468C64.5443 264.089 63.5932 263.594 62.7095 262.994C61.734 262.369 60.8311 261.637 60.0176 260.812L59.0824 262.229C58.9306 262.434 58.8486 262.682 58.8486 262.937C58.8486 263.192 58.9306 263.441 59.0824 263.646C59.1533 263.736 59.2397 263.813 59.3375 263.873L63.0213 266.224L63.3046 266.366C63.5491 266.435 63.8089 266.425 64.0477 266.339C64.2865 266.252 64.4923 266.093 64.6365 265.884Z" fill="#C8C8C8"/>
<path d="M62.908 262.683C63.7916 263.284 64.7427 263.778 65.7416 264.157C69.2335 265.436 73.0741 265.385 76.5304 264.012C79.9866 262.64 82.8166 260.043 84.48 256.717C86.1434 253.391 86.5238 249.569 85.5486 245.98C84.5735 242.392 82.311 239.288 79.193 237.261C76.0751 235.234 72.32 234.427 68.6445 234.993C64.969 235.558 61.6306 237.458 59.2663 240.328C56.9021 243.199 55.6776 246.839 55.8266 250.555C55.9756 254.271 57.4877 257.801 60.0743 260.473C60.9238 261.324 61.8756 262.067 62.908 262.683ZM61.5478 243.868C62.7523 241.974 64.492 240.48 66.5463 239.576C68.6006 238.672 70.8771 238.398 73.0872 238.789C75.2973 239.181 77.3415 240.219 78.9608 241.773C80.5801 243.327 81.7015 245.327 82.1829 247.52C82.6643 249.712 82.484 251.998 81.665 254.087C80.8459 256.177 79.4248 257.976 77.582 259.258C75.7391 260.539 73.5574 261.244 71.3133 261.284C69.0692 261.324 66.8638 260.696 64.9765 259.481C62.4579 257.86 60.6835 255.308 60.041 252.382C59.3986 249.456 59.9403 246.395 61.5478 243.868Z" fill="#C8C8C8"/>
<path d="M435.282 355.487L437.974 353.531L436.755 349.848H433.553L431.57 347.326L432.363 344.123L429.076 342.083L426.554 344.208L423.409 343.557L421.935 340.581L418.11 341.148L417.543 344.407L414.709 345.909L411.705 344.577L409.098 347.411L410.77 350.244L409.58 353.078L406.406 353.985V357.867L409.524 358.972L410.515 362.032L408.673 364.866L411.082 367.898L414.171 366.765L417.004 368.465L417.373 371.752L421.17 372.545L422.785 369.712L425.987 369.258L428.368 371.554L431.768 369.74L431.201 366.481L433.326 364.073L436.642 364.299L438.059 360.701L435.537 358.604L435.282 355.487ZM422.218 364.469C420.67 364.475 419.156 364.021 417.866 363.165C416.576 362.309 415.569 361.09 414.973 359.661C414.376 358.232 414.217 356.659 414.516 355.14C414.815 353.621 415.557 352.225 416.65 351.128C417.742 350.032 419.136 349.284 420.654 348.98C422.172 348.676 423.746 348.829 425.176 349.42C426.607 350.011 427.83 351.014 428.691 352.3C429.552 353.587 430.011 355.1 430.011 356.648C430.015 357.674 429.816 358.69 429.426 359.639C429.036 360.588 428.463 361.45 427.739 362.177C427.015 362.904 426.154 363.48 425.207 363.873C424.26 364.267 423.244 364.469 422.218 364.469Z" fill="#C8C8C8"/>
<path fill-rule="evenodd" clip-rule="evenodd" d="M76.6797 190.791C107.595 177.02 138.511 204.535 169.426 190.791V226.977C138.511 240.749 107.68 213.234 76.6797 226.977V190.791Z" fill="#C8C8C8"/>
<path fill-rule="evenodd" clip-rule="evenodd" d="M113.772 206.887C113.772 199.803 117.938 194.901 123.067 196.063C128.196 197.224 132.333 203.912 132.333 210.854C132.333 217.797 128.167 222.869 123.067 221.707C117.966 220.546 113.772 213.971 113.772 206.887Z" fill="#C8C8C8"/>
<path fill-rule="evenodd" clip-rule="evenodd" d="M327.432 142.279C364.865 125.617 402.298 158.97 439.731 142.279V186.145C402.298 202.807 364.865 169.483 327.432 186.145V142.279Z" fill="#C8C8C8"/>
<path fill-rule="evenodd" clip-rule="evenodd" d="M372.345 161.832C372.345 153.331 377.361 147.267 383.68 148.683C389.999 150.1 395.015 158.063 395.015 166.621C395.015 175.178 389.971 181.157 383.68 179.769C377.389 178.38 372.345 170.389 372.345 161.832Z" fill="#C8C8C8"/>
<path fill-rule="evenodd" clip-rule="evenodd" d="M0 293.457C27.7417 281.102 55.4551 305.812 83.1969 293.457V325.931C55.4551 338.286 27.7417 313.605 0 325.931V293.457Z" fill="#C8C8C8"/>
<path fill-rule="evenodd" clip-rule="evenodd" d="M418.195 258.886C445.937 246.531 473.679 271.241 501.392 258.886V291.36C473.679 303.715 445.937 279.033 418.195 291.36V258.886Z" fill="#C8C8C8"/>
<path d="M166.025 432.788H243.13V408.843C218.707 408.767 194.304 407.424 170.021 404.819C168.235 413.802 166.932 423.153 166.025 432.788Z" fill="#C8C8C8"/>
<path d="M248.514 408.843V432.788H325.618C324.712 423.153 323.408 413.802 321.736 404.819C297.415 407.429 272.975 408.772 248.514 408.843Z" fill="#C8C8C8"/>
<path d="M356.534 400.03C346.956 401.617 337.123 403.034 327.035 404.224C328.735 413.405 330.067 422.955 331.002 432.788H383.567C383.567 432.504 383.567 432.221 383.425 431.937C381.43 419.985 378.337 408.242 374.188 396.856C368.426 397.99 362.541 399.048 356.534 400.03Z" fill="#C8C8C8"/>
<path d="M108.218 431.909L108.048 432.788H160.641C161.576 422.955 162.908 413.405 164.608 404.224C155.371 403.147 146.388 401.872 137.575 400.455C130.746 399.35 124.002 398.16 117.456 396.856C113.293 408.228 110.2 419.963 108.218 431.909Z" fill="#C8C8C8"/>
<path d="M300.37 339.928C283.25 342.976 265.903 344.569 248.514 344.689V403.573C272.641 403.505 296.749 402.209 320.744 399.691C316.811 378.907 309.951 358.786 300.37 339.928Z" fill="#C8C8C8"/>
<path d="M302.92 333.92C311.309 332.325 319.613 330.311 327.8 327.884C312.017 313.796 292.996 303.828 272.43 298.868C283.793 306.292 294.136 318.335 302.92 333.92Z" fill="#C8C8C8"/>
<path d="M342.875 322.756C327.123 312.093 309.716 304.108 291.359 299.124C307.04 305.423 321.444 314.526 333.864 325.987C336.839 324.967 339.815 323.89 342.875 322.756Z" fill="#C8C8C8"/>
<path d="M248.514 295.893V339.191C264.991 339.085 281.433 337.645 297.678 334.884C284.218 311.591 267.16 297.168 248.514 295.893Z" fill="#C8C8C8"/>
<path d="M137.575 395.157C146.7 396.602 156.022 397.991 165.629 399.011C169.66 378.097 176.544 357.836 186.088 338.795C177.06 337.006 168.139 334.717 159.366 331.938C151.217 339.724 143.913 348.348 137.575 357.668C130.263 368.394 124.135 379.88 119.298 391.927C125.286 393.155 131.379 394.232 137.575 395.157Z" fill="#C8C8C8"/>
<path d="M170.871 399.577C194.875 402.096 218.993 403.392 243.129 403.459V344.576C225.734 344.493 208.378 342.938 191.245 339.928C181.699 358.761 174.841 378.84 170.871 399.577Z" fill="#C8C8C8"/>
<path d="M188.723 333.92C197.507 318.335 207.85 306.292 219.213 298.868C198.641 303.834 179.612 313.801 163.815 327.884C171.692 330.236 180.023 332.248 188.723 333.92Z" fill="#C8C8C8"/>
<path d="M243.13 295.893C224.484 297.168 207.397 311.591 193.966 334.884C210.21 337.646 226.652 339.087 243.13 339.191V295.893Z" fill="#C8C8C8"/>
<path d="M399.152 386.004C388.583 365.79 374.14 347.852 356.647 333.213C353.813 330.833 350.979 328.509 347.862 326.327C344.689 327.602 341.458 328.849 338.115 330.011C344.915 336.731 351.116 344.032 356.647 351.83C365.213 363.966 372.274 377.097 377.673 390.935C385.04 389.424 392.2 387.78 399.152 386.004Z" fill="#C8C8C8"/>
<path d="M137.575 348.429C142.458 341.892 147.818 335.726 153.614 329.982C150.298 328.82 147.04 327.573 143.894 326.298C141.741 327.857 139.644 329.528 137.575 331.2C123.201 342.753 110.765 356.529 100.737 372.005C97.9035 376.539 95.0699 381.186 92.4912 385.975C95.3249 386.655 97.9602 387.307 100.737 387.959C105.073 388.979 109.465 389.943 113.971 390.793C119.913 375.681 127.852 361.434 137.575 348.429Z" fill="#C8C8C8"/>
<path d="M356.534 361.408C349.643 350.652 341.49 340.758 332.249 331.938C323.486 334.72 314.574 337.01 305.556 338.795C315.074 357.847 321.957 378.104 326.015 399.011C336.462 397.821 346.635 396.395 356.534 394.732C361.861 393.854 367.16 392.947 372.317 391.898C368.043 381.254 362.758 371.043 356.534 361.408Z" fill="#C8C8C8"/>
<path d="M200.426 299.124C182.062 304.09 164.652 312.077 148.909 322.756C151.743 323.89 154.803 324.967 157.864 325.987C170.296 314.514 184.72 305.41 200.426 299.124Z" fill="#C8C8C8"/>
<path d="M389.036 432.788H415.503C412.708 418.192 408.011 404.026 401.533 390.651H401.164C394.165 392.436 386.996 394.136 379.515 395.695C383.85 407.731 387.038 420.151 389.036 432.788Z" fill="#C8C8C8"/>
<path d="M112.129 395.78C108.275 394.958 104.478 394.136 100.794 393.258C97.1101 392.379 93.653 391.529 90.1676 390.651C83.6928 404.03 78.9872 418.194 76.1692 432.788H102.664C104.635 420.179 107.805 407.787 112.129 395.78Z" fill="#C8C8C8"/>
<path d="M285.041 244.529L223.921 245.042L224.217 280.32L285.337 279.808L285.041 244.529Z" fill="#C8C8C8"/>
<path d="M267.698 107.766H223.918V141.515H267.698V107.766Z" fill="#C8C8C8"/>
<path d="M468.748 216.409C471.166 213.904 472.576 210.595 472.71 207.116C472.844 203.636 471.692 200.229 469.473 197.545C467.255 194.861 464.126 193.088 460.684 192.564C457.241 192.04 453.727 192.802 450.81 194.705C447.894 196.607 445.78 199.517 444.873 202.879C443.966 206.241 444.328 209.819 445.891 212.93C447.454 216.042 450.108 218.469 453.346 219.748C456.585 221.028 460.181 221.07 463.449 219.866C464.44 219.505 465.389 219.039 466.282 218.478C467.182 217.887 468.009 217.192 468.748 216.409ZM464.299 215.474C462.526 216.605 460.457 217.185 458.355 217.139C456.253 217.094 454.211 216.426 452.488 215.22C450.766 214.013 449.44 212.323 448.679 210.363C447.917 208.403 447.755 206.261 448.211 204.208C448.668 202.155 449.723 200.284 451.244 198.832C452.764 197.379 454.682 196.41 456.753 196.048C458.824 195.686 460.957 195.946 462.88 196.796C464.803 197.646 466.431 199.048 467.558 200.824C469.064 203.2 469.568 206.076 468.957 208.823C468.346 211.569 466.671 213.961 464.299 215.474Z" fill="#C8C8C8"/>
<path d="M146.7 155.682L150.355 155.059L150.724 155.002L151.319 152.168L151.715 150.383L152.367 147.323L152.509 146.586L153.444 142.279L166.28 137.858L171.721 129.556L173.96 131.001L175.122 120.8L166.025 125.872L168.321 127.345L167.867 128.082L163.645 134.486L162.908 134.741L162.143 134.996L154.096 137.773L150.242 139.105L149.987 139.19L149.222 142.732L149.08 143.327L147.351 151.46L137.264 153.16L136.442 153.302L135.025 153.529L124.824 164.013L124.172 164.693L124.03 164.863L126.921 167.669L137.009 157.297L146.7 155.682Z" fill="#C8C8C8"/>
<path d="M127.742 140.04C127.188 140.047 126.635 139.981 126.099 139.842C125.613 139.724 125.158 139.501 124.767 139.19C124.388 138.883 124.095 138.482 123.917 138.028C123.676 137.485 123.56 136.894 123.577 136.3V132.078C123.56 131.483 123.676 130.893 123.917 130.349C124.107 129.902 124.398 129.504 124.767 129.187C125.165 128.887 125.617 128.666 126.099 128.536C126.638 128.41 127.189 128.344 127.742 128.337C128.287 128.34 128.829 128.407 129.357 128.536C129.839 128.666 130.291 128.887 130.689 129.187C131.058 129.504 131.349 129.902 131.539 130.349C131.78 130.893 131.896 131.483 131.879 132.078V136.3C131.896 136.894 131.78 137.485 131.539 138.028C131.361 138.482 131.068 138.883 130.689 139.19C130.298 139.501 129.843 139.724 129.357 139.842C128.831 139.985 128.287 140.052 127.742 140.04ZM129.386 132.078C129.404 131.86 129.375 131.642 129.302 131.437C129.229 131.231 129.112 131.044 128.961 130.887C128.611 130.624 128.179 130.493 127.742 130.519C127.313 130.487 126.888 130.618 126.552 130.887C126.401 131.044 126.284 131.231 126.211 131.437C126.138 131.642 126.109 131.86 126.127 132.078V136.3C126.109 136.517 126.138 136.736 126.211 136.941C126.284 137.146 126.401 137.333 126.552 137.49C126.888 137.759 127.313 137.891 127.742 137.858C128.179 137.884 128.611 137.754 128.961 137.49C129.112 137.333 129.229 137.146 129.302 136.941C129.375 136.736 129.404 136.517 129.386 136.3V132.078ZM139.445 127.175C139.808 127.181 140.158 127.311 140.437 127.544C140.587 127.649 140.709 127.789 140.793 127.952C140.877 128.115 140.92 128.296 140.919 128.479C140.961 128.656 140.961 128.84 140.919 129.017L130.349 150.071C130.31 150.178 130.249 150.276 130.171 150.358C130.093 150.441 130 150.507 129.896 150.553C129.688 150.668 129.453 150.727 129.216 150.723C129.029 150.729 128.844 150.694 128.673 150.621C128.501 150.547 128.348 150.437 128.224 150.298C128.003 150.068 127.873 149.766 127.856 149.448C127.835 149.279 127.835 149.107 127.856 148.938L138.312 127.77C138.449 127.595 138.637 127.466 138.85 127.402C139.031 127.286 139.233 127.208 139.445 127.175ZM140.834 149.675C140.29 149.668 139.748 149.602 139.219 149.476C138.735 149.352 138.282 149.131 137.887 148.825C137.506 148.513 137.204 148.115 137.008 147.663C136.786 147.104 136.68 146.507 136.697 145.906V141.712C136.683 141.121 136.789 140.533 137.008 139.984C137.204 139.532 137.506 139.133 137.887 138.822C138.265 138.49 138.725 138.265 139.219 138.17C140.284 137.868 141.412 137.868 142.477 138.17C142.959 138.276 143.407 138.5 143.781 138.822C144.162 139.133 144.463 139.532 144.659 139.984C144.879 140.533 144.985 141.121 144.971 141.712V145.906C144.988 146.507 144.882 147.104 144.659 147.663C144.463 148.115 144.162 148.513 143.781 148.825C143.393 149.125 142.95 149.346 142.477 149.476C141.939 149.603 141.387 149.67 140.834 149.675ZM142.506 141.712C142.526 141.492 142.496 141.271 142.417 141.064C142.339 140.858 142.214 140.673 142.052 140.522C141.707 140.248 141.274 140.107 140.834 140.125C140.403 140.112 139.981 140.252 139.644 140.522C139.492 140.679 139.376 140.866 139.303 141.071C139.229 141.276 139.201 141.495 139.219 141.712V145.906C139.195 146.124 139.221 146.344 139.294 146.55C139.368 146.756 139.487 146.943 139.644 147.096C139.981 147.366 140.403 147.506 140.834 147.493C141.274 147.511 141.707 147.37 142.052 147.096C142.219 146.95 142.348 146.765 142.427 146.557C142.506 146.35 142.533 146.126 142.506 145.906V141.712Z" fill="#C8C8C8"/>
<path d="M323.437 268.436L326.44 267.926L326.752 267.87L327.234 265.546L327.545 264.072L328.084 261.55L328.226 260.955L328.991 257.385L339.56 253.758L344.038 246.929L345.879 248.09L346.843 239.731L339.362 243.897L341.26 245.087L340.864 245.71L337.378 250.981L336.783 251.179L336.16 251.406L329.529 253.673L326.355 254.778L326.129 254.863L325.505 257.753L325.392 258.263L323.975 264.951L315.644 266.368L314.992 266.481L313.83 266.679L305.414 275.294L304.876 275.861L304.763 275.974L307.143 278.298L315.446 269.768L323.437 268.436Z" fill="#C8C8C8"/>
<path d="M307.823 255.569C307.364 255.572 306.907 255.515 306.463 255.399C306.073 255.289 305.708 255.107 305.386 254.861C305.073 254.603 304.83 254.272 304.678 253.897C304.475 253.453 304.378 252.968 304.394 252.48V248.995C304.375 248.507 304.472 248.021 304.678 247.578C304.83 247.203 305.073 246.872 305.386 246.615C305.702 246.36 306.069 246.177 306.463 246.076C306.907 245.961 307.364 245.904 307.823 245.906C308.273 245.902 308.721 245.959 309.155 246.076C309.551 246.168 309.92 246.353 310.232 246.615C310.544 246.879 310.795 247.208 310.968 247.578C311.15 248.028 311.237 248.51 311.223 248.995V252.48C311.234 252.965 311.147 253.447 310.968 253.897C310.795 254.268 310.544 254.597 310.232 254.861C309.915 255.115 309.548 255.299 309.155 255.399C308.721 255.517 308.273 255.574 307.823 255.569ZM309.183 248.995C309.202 248.817 309.179 248.636 309.115 248.469C309.051 248.301 308.948 248.152 308.815 248.032C308.524 247.828 308.178 247.719 307.823 247.719C307.468 247.719 307.122 247.828 306.831 248.032C306.708 248.158 306.614 248.31 306.555 248.476C306.497 248.642 306.475 248.819 306.491 248.995V252.48C306.477 252.656 306.499 252.833 306.558 252.999C306.617 253.165 306.71 253.316 306.831 253.444C307.122 253.648 307.468 253.757 307.823 253.757C308.178 253.757 308.524 253.648 308.815 253.444C308.946 253.323 309.048 253.172 309.112 253.005C309.176 252.838 309.2 252.659 309.183 252.48V248.995ZM317.372 244.943C317.672 244.957 317.96 245.066 318.194 245.255C318.317 245.341 318.417 245.456 318.486 245.589C318.555 245.722 318.591 245.87 318.591 246.02C318.62 246.169 318.62 246.323 318.591 246.473L310.09 263.844C310.015 264.014 309.886 264.153 309.721 264.24C309.535 264.286 309.341 264.286 309.155 264.24C309.005 264.247 308.856 264.22 308.719 264.161C308.582 264.102 308.459 264.013 308.361 263.9C308.26 263.812 308.18 263.703 308.126 263.581C308.072 263.458 308.046 263.326 308.05 263.192C308.026 263.061 308.026 262.926 308.05 262.795L316.551 245.34C316.627 245.177 316.757 245.047 316.919 244.971C317.066 244.926 317.221 244.916 317.372 244.943ZM318.534 263.475C318.146 263.499 317.756 263.48 317.372 263.418C316.981 263.327 316.614 263.153 316.296 262.908C315.983 262.644 315.732 262.316 315.559 261.945C315.377 261.485 315.29 260.994 315.304 260.5V256.929C315.29 256.435 315.377 255.944 315.559 255.484C315.735 255.124 315.987 254.805 316.296 254.549C316.607 254.287 316.976 254.103 317.372 254.011C317.816 253.895 318.274 253.838 318.733 253.841C319.182 253.838 319.63 253.895 320.064 254.011C320.458 254.111 320.825 254.295 321.141 254.549C321.453 254.796 321.696 255.118 321.85 255.484C322.055 255.937 322.152 256.432 322.133 256.929V260.386C322.152 260.884 322.055 261.378 321.85 261.832C321.697 262.207 321.454 262.538 321.141 262.795C320.818 263.032 320.453 263.205 320.064 263.305C319.591 263.412 319.104 263.45 318.619 263.418L318.534 263.475ZM319.894 256.929C319.914 256.747 319.89 256.562 319.826 256.39C319.763 256.218 319.66 256.063 319.526 255.938C319.24 255.725 318.89 255.615 318.534 255.626C318.177 255.611 317.827 255.721 317.542 255.938C317.419 256.069 317.324 256.226 317.266 256.397C317.207 256.568 317.186 256.749 317.202 256.929V260.386C317.187 260.566 317.21 260.747 317.268 260.918C317.327 261.089 317.42 261.245 317.542 261.378C317.827 261.595 318.177 261.705 318.534 261.69C318.89 261.7 319.24 261.591 319.526 261.378C319.658 261.251 319.76 261.096 319.823 260.924C319.887 260.753 319.911 260.569 319.894 260.386V256.929Z" fill="#C8C8C8"/>
<path d="M199.151 261.52L203.147 258.687L201.333 253.189H196.402L193.569 249.421L194.759 244.632L189.857 241.543L186.088 244.745L181.356 243.753L179.174 239.333L173.506 240.154L172.684 245L168.462 247.267L163.928 245.283L160.075 249.591L162.568 253.841L160.783 258.318L155.852 259.678L155.654 265.346L160.33 267.018L161.803 271.58L158.969 275.66L162.653 280.421L167.187 278.607L171.268 281.129L171.778 286.06L177.445 287.222L179.882 282.943L184.643 282.263L188.185 285.692L193.285 282.858L192.407 278.012L195.609 274.442L200.54 274.782L202.693 269.398L199.009 266.253L199.151 261.52ZM179.315 274.952C177.004 274.935 174.75 274.232 172.838 272.933C170.926 271.634 169.444 269.796 168.577 267.653C167.711 265.51 167.5 263.158 167.972 260.895C168.444 258.633 169.576 256.561 171.227 254.942C172.877 253.324 174.97 252.232 177.242 251.804C179.513 251.377 181.861 251.633 183.986 252.541C186.112 253.449 187.92 254.967 189.182 256.904C190.444 258.84 191.103 261.108 191.075 263.419C191.038 266.486 189.795 269.415 187.616 271.573C185.437 273.731 182.496 274.945 179.429 274.952H179.315Z" fill="#C8C8C8"/>
<path d="M320.943 192.579L322.756 191.247L321.935 188.753H319.696L318.336 187.053L318.874 184.843L316.636 183.454L314.935 184.928L312.782 184.474L311.79 182.463L309.183 182.831L308.786 185.041L306.859 186.09L304.819 185.183L303.062 187.138L304.196 189.093L303.374 191.105L301.22 191.729V194.364L303.346 195.129L304.026 197.226L302.751 199.068L304.394 201.165L306.491 200.371L308.361 201.533L308.588 203.772L311.195 204.31L312.3 202.355L314.454 202.043L316.097 203.602L318.421 202.355L318.024 200.145L319.469 198.501L321.708 198.671L322.7 196.206L320.971 194.761L320.943 192.579ZM311.96 198.7C310.909 198.683 309.886 198.355 309.021 197.759C308.156 197.162 307.486 196.322 307.097 195.346C306.707 194.37 306.616 193.3 306.833 192.271C307.05 191.243 307.567 190.302 308.318 189.566C309.069 188.831 310.021 188.334 311.054 188.139C312.087 187.943 313.155 188.057 314.123 188.467C315.091 188.877 315.916 189.564 316.494 190.442C317.072 191.32 317.378 192.349 317.372 193.401C317.373 194.107 317.232 194.807 316.959 195.459C316.686 196.111 316.286 196.702 315.782 197.198C315.278 197.694 314.681 198.084 314.025 198.347C313.369 198.61 312.667 198.739 311.96 198.728V198.7Z" fill="#C8C8C8"/>
<path d="M87.0788 169.907L89.3174 168.292L88.2973 165.232H85.4636L83.8201 163.135L84.4719 160.471L81.6382 158.771L79.5412 160.556L76.9343 160.018L75.7158 157.524L72.5421 158.006L72.0603 160.839L69.7084 162.114L67.1864 161.009L65.0328 163.39L66.4213 165.77L65.4295 168.264L62.7942 169.029V172.231L65.3728 173.166L66.1946 175.716L64.6644 177.983L66.6763 180.533L69.255 179.57L71.5219 180.987L71.8053 183.82L74.9507 184.501L76.3392 182.092L78.9745 181.724L80.9581 183.622L83.7918 182.092L83.31 179.4L85.0953 177.416L87.9289 177.586L89.1191 174.753L86.9938 172.741L87.0788 169.907ZM76.0842 177.388C74.7927 177.394 73.5287 177.015 72.4526 176.301C71.3765 175.587 70.5367 174.57 70.0399 173.378C69.5431 172.186 69.4117 170.873 69.6623 169.606C69.9128 168.339 70.5341 167.175 71.4473 166.262C72.3605 165.349 73.5244 164.728 74.7913 164.477C76.0582 164.226 77.371 164.358 78.5631 164.855C79.7551 165.351 80.7727 166.191 81.4867 167.267C82.2007 168.343 82.5789 169.607 82.5733 170.899C82.5733 172.62 81.8896 174.27 80.6727 175.487C79.4557 176.704 77.8052 177.388 76.0842 177.388Z" fill="#C8C8C8"/>
<path d="M394.59 263.221C394.59 263.221 416.919 230.718 406.151 214.226L398.783 210.373C395.97 208.804 393.67 206.456 392.162 203.61C390.653 200.764 390.001 197.542 390.282 194.334C390.282 193.427 390.424 192.662 390.452 192.067L390.736 187.76C391.218 180.874 391.586 176.057 391.813 174.696C392.213 172.555 391.798 170.342 390.65 168.491C389.502 166.64 387.703 165.286 385.607 164.694H385.437C384.358 164.526 383.256 164.583 382.199 164.86C381.143 165.137 380.155 165.628 379.296 166.303C378.438 166.978 377.727 167.823 377.209 168.784C376.691 169.745 376.376 170.803 376.284 171.891C374.605 182.499 373.479 193.187 372.912 203.912C372.624 205.517 371.769 206.965 370.503 207.992C363.731 215.445 360.84 223.832 358.829 235.961C355.712 254.55 363.447 263.277 363.447 263.277V294.448H394.618L394.59 263.221Z" fill="#FFCF9F"/>
<path d="M358.966 265.203L358.832 286.422L398.549 286.671L398.682 265.452L358.966 265.203Z" fill="#C8C8C8"/>
<path d="M399.153 386.006C400.258 387.706 401.164 389.378 401.164 389.378V283.88H356.534V333.214C374.068 347.843 388.55 365.781 399.153 386.006Z" fill="#575756"/>
<path d="M467.954 348.429C467.954 348.429 484.503 324.343 476.455 312.13L470.986 309.296C468.909 308.131 467.213 306.391 466.102 304.284C464.991 302.178 464.512 299.795 464.723 297.423C464.723 296.771 464.723 296.204 464.723 295.751L464.922 292.549C465.29 287.448 465.574 284.048 465.715 282.886C466.017 281.299 465.713 279.656 464.863 278.282C464.014 276.907 462.68 275.901 461.125 275.462C460.326 275.339 459.511 275.381 458.729 275.586C457.947 275.791 457.216 276.155 456.581 276.654C455.946 277.154 455.42 277.779 455.037 278.49C454.653 279.201 454.42 279.984 454.352 280.789C453.102 288.634 452.288 296.543 451.915 304.479C451.692 305.667 451.06 306.739 450.13 307.511C445.086 313.178 442.961 319.242 441.459 328.225C439.22 341.997 444.888 348.429 444.888 348.429V371.495H467.954V348.429Z" fill="#FFCF9F"/>
<path d="M472.828 363.76H439.759V432.788H472.828V363.76Z" fill="#575756"/>
<path d="M441.653 350.29L441.546 367.263L470.959 367.448L471.066 350.475L441.653 350.29Z" fill="#C8C8C8"/>
<path d="M49.7595 383.029C49.7595 383.029 66.3082 358.943 58.2605 346.73L52.8199 343.896C50.7295 342.732 49.0189 340.991 47.8931 338.88C46.7673 336.769 46.274 334.378 46.4724 331.994C46.4724 331.343 46.4724 330.776 46.4724 330.323L46.6991 327.12C47.0675 322.02 47.3509 318.619 47.4926 317.458C47.7944 315.87 47.4904 314.227 46.6407 312.853C45.7909 311.479 44.457 310.473 42.902 310.033C42.1034 309.91 41.2879 309.952 40.5063 310.157C39.7247 310.363 38.9936 310.726 38.3585 311.226C37.7233 311.725 37.1977 312.35 36.8143 313.062C36.4308 313.773 36.1977 314.555 36.1295 315.361C34.9068 323.21 34.0934 331.117 33.6925 339.05C33.4807 340.242 32.847 341.319 31.9073 342.082C26.8917 347.58 24.7664 353.814 23.4063 362.797C21.111 376.568 26.835 383.029 26.835 383.029V406.095H49.9012L49.7595 383.029Z" fill="#FFCF9F"/>
<path d="M52.0106 385.254L22.6501 385.5L22.7581 398.385L52.1186 398.139L52.0106 385.254Z" fill="#C8C8C8"/>
<path d="M54.633 398.331H21.564V432.789H54.633V398.331Z" fill="#575756"/>
<path d="M132.135 290.623C132.135 290.623 150.582 263.788 141.684 250.158L135.592 246.984C133.26 245.699 131.352 243.764 130.1 241.415C128.847 239.066 128.304 236.403 128.536 233.751C128.536 233.014 128.536 232.362 128.536 231.881L128.791 228.31C129.188 222.643 129.499 218.676 129.669 217.542C130.012 215.79 129.692 213.973 128.77 212.444C127.849 210.915 126.391 209.783 124.682 209.268H124.54C123.645 209.12 122.728 209.16 121.849 209.387C120.97 209.614 120.148 210.022 119.435 210.584C118.723 211.147 118.136 211.853 117.712 212.656C117.289 213.459 117.037 214.341 116.974 215.247C115.549 223.992 114.603 232.809 114.141 241.657C113.901 242.981 113.198 244.176 112.157 245.029C106.49 251.178 104.166 258.092 102.494 268.124C99.9439 283.482 106.32 290.793 106.32 290.793V316.494H132.021L132.135 290.623Z" fill="#FFCF9F"/>
<path d="M135.876 291.985L102.856 292.262L102.997 309.036L136.016 308.759L135.876 291.985Z" fill="#C8C8C8"/>
<path d="M137.575 331.23V307.654H100.738V372.035C110.765 356.558 123.201 342.783 137.575 331.23Z" fill="#575756"/>
<path d="M289.035 432.79V429.701L289.177 270.902L220.205 271.468L220.375 432.79H289.035Z" fill="#575756"/>
</svg>
