<svg width="53" height="50" viewBox="0 0 53 50" fill="none" xmlns="http://www.w3.org/2000/svg">
<path d="M52.174 29.8913C52.174 28.5848 51.6544 27.3674 50.7588 26.4695C51.774 25.3587 52.2914 23.8695 52.15 22.3196C51.8957 19.5565 49.4065 17.3913 46.4805 17.3913H33.0522C33.7174 15.3717 34.7826 11.6695 34.7826 8.69563C34.7826 3.98041 30.7761 0 28.2609 0C26.0044 0 24.3891 1.27174 24.3217 1.32391C24.063 1.53047 23.913 1.84351 23.913 2.17388V9.5456L17.65 23.1087L17.3913 23.2413V22.826C17.3913 22.226 16.9043 21.739 16.3043 21.739H5.43476C2.43699 21.7391 0 24.1761 0 27.1739V44.5652C0 47.5631 2.43699 50 5.43476 50H11.9565C14.3065 50 16.3152 48.5 17.0717 46.4065C18.8805 47.337 21.3152 47.8261 22.8261 47.8261H42.7805C45.1479 47.8261 47.2197 46.2304 47.7066 44.0305C47.9566 42.8957 47.8109 41.7544 47.3153 40.7631C48.9196 39.9565 50.0001 38.2978 50.0001 36.4131C50.0001 35.6435 49.824 34.9065 49.4914 34.2413C51.0958 33.4326 52.174 31.7761 52.174 29.8913ZM47.5892 32.5739C47.1697 32.6239 46.8152 32.9086 46.6805 33.3108C46.548 33.7131 46.6588 34.1543 46.9675 34.4456C47.5197 34.9652 47.8262 35.6652 47.8262 36.4131C47.8262 37.7848 46.7893 38.937 45.4176 39.0956C44.998 39.1457 44.6436 39.4304 44.5089 39.8326C44.3763 40.2348 44.4872 40.676 44.7959 40.9674C45.5111 41.6413 45.7981 42.5869 45.5828 43.5609C45.3154 44.7739 44.1372 45.6522 42.7806 45.6522H22.8261C21.0609 45.6522 18.1 44.824 17.0739 43.7957C16.763 43.487 16.2935 43.3957 15.8891 43.5609C15.4826 43.7283 15.2174 44.1261 15.2174 44.5652C15.2174 46.3631 13.7544 47.8261 11.9565 47.8261H5.43476C3.63689 47.8261 2.17388 46.3631 2.17388 44.5652V27.1739C2.17388 25.376 3.63689 23.913 5.43476 23.913H15.2174V25C15.2174 25.3761 15.413 25.7261 15.7347 25.9261C16.0522 26.1174 16.4521 26.1369 16.7913 25.9717L18.9651 24.8847C19.1847 24.776 19.3608 24.5934 19.4652 24.3695L25.9869 10.239C26.0521 10.0956 26.0869 9.93904 26.0869 9.78252V2.76298C26.5391 2.51301 27.324 2.17388 28.2609 2.17388C29.4522 2.17388 32.6087 5.13476 32.6087 8.69563C32.6087 12.5218 30.5262 18.0369 30.5066 18.0913C30.3805 18.4239 30.424 18.8001 30.6261 19.0957C30.8304 19.3892 31.1653 19.5652 31.5217 19.5652H46.4805C48.2935 19.5652 49.8327 20.8631 49.9848 22.5196C50.1001 23.7587 49.5043 24.937 48.437 25.5957C48.1044 25.8 47.9066 26.1696 47.9218 26.5631C47.937 26.9565 48.1631 27.3087 48.5109 27.4892C49.4305 27.9566 50 28.8783 50 29.8913C50.0001 31.263 48.9631 32.4152 47.5892 32.5739Z" fill="#FC7753"/>
<path d="M16.3038 23.9131C15.7038 23.9131 15.2168 24.4001 15.2168 25.0001V44.5653C15.2168 45.1653 15.7038 45.6523 16.3038 45.6523C16.9038 45.6523 17.3908 45.1653 17.3908 44.5653V25.0001C17.3908 24.4001 16.9038 23.9131 16.3038 23.9131Z" fill="#FC7753"/>
</svg>
