<svg width="106" height="106" viewBox="0 0 106 106" fill="none" xmlns="http://www.w3.org/2000/svg">
<path d="M12.4219 57.1406H36.4375C43.2869 57.1406 48.8594 62.7131 48.8594 69.5625V93.5781C48.8594 100.428 43.2869 106 36.4375 106H12.4219C5.57246 106 0 100.428 0 93.5781V69.5625C0 62.7131 5.57246 57.1406 12.4219 57.1406ZM8.28125 93.5781C8.28125 95.8613 10.1387 97.7188 12.4219 97.7188H36.4375C38.7206 97.7188 40.5781 95.8613 40.5781 93.5781V69.5625C40.5781 67.2794 38.7206 65.4219 36.4375 65.4219H12.4219C10.1387 65.4219 8.28125 67.2794 8.28125 69.5625V93.5781ZM69.5625 57.1406H93.5781C100.428 57.1406 106 62.7131 106 69.5625V93.5781C106 100.428 100.428 106 93.5781 106H69.5625C62.7131 106 57.1406 100.428 57.1406 93.5781V69.5625C57.1406 62.7131 62.7131 57.1406 69.5625 57.1406ZM65.4219 93.5781C65.4219 95.8613 67.2794 97.7188 69.5625 97.7188H93.5781C95.8613 97.7188 97.7188 95.8613 97.7188 93.5781V69.5625C97.7188 67.2794 95.8613 65.4219 93.5781 65.4219H69.5625C67.2794 65.4219 65.4219 67.2794 65.4219 69.5625V93.5781ZM69.5625 0H93.5781C100.428 0 106 5.57245 106 12.4219V36.4375C106 43.2869 100.428 48.8594 93.5781 48.8594H69.5625C62.7131 48.8594 57.1406 43.2869 57.1406 36.4375V12.4219C57.1406 5.57245 62.7131 0 69.5625 0ZM65.4219 36.4375C65.4219 38.7206 67.2794 40.5781 69.5625 40.5781H93.5781C95.8613 40.5781 97.7188 38.7206 97.7188 36.4375V12.4219C97.7188 10.1387 95.8613 8.28125 93.5781 8.28125H69.5625C67.2794 8.28125 65.4219 10.1387 65.4219 12.4219V36.4375ZM12.4219 0H36.4375C43.2869 0 48.8594 5.57245 48.8594 12.4219V36.4375C48.8594 43.2869 43.2869 48.8594 36.4375 48.8594H12.4219C5.57246 48.8594 0 43.2869 0 36.4375V12.4219C0 5.57245 5.57246 0 12.4219 0ZM8.28125 36.4375C8.28125 38.7206 10.1387 40.5781 12.4219 40.5781H36.4375C38.7206 40.5781 40.5781 38.7206 40.5781 36.4375V12.4219C40.5781 10.1387 38.7206 8.28125 36.4375 8.28125H12.4219C10.1387 8.28125 8.28125 10.1387 8.28125 12.4219V36.4375Z" fill="#FC7753"/>
</svg>
