<svg width="204" height="185" viewBox="0 0 204 185" fill="none" xmlns="http://www.w3.org/2000/svg">
<path d="M159.714 38.1342C139.023 29.8361 122.386 52.5002 101.589 43.2053C101.589 31.1147 101.589 19.0241 101.589 6.93354C122.572 16.311 139.319 -6.84158 160.269 2.09223C160.538 2.20691 160.712 2.47517 160.712 2.76723V37.4572C160.712 37.9719 160.192 38.3259 159.714 38.1342Z" fill="#FC7753"/>
<path d="M160.268 2.09223C153.971 -0.593108 148.053 -0.37763 142.286 0.980318V37.2513C147.884 35.933 153.623 35.6917 159.713 38.1346C160.191 38.3263 160.711 37.9723 160.711 37.4576V2.76724C160.711 2.47517 160.537 2.20692 160.268 2.09223Z" fill="#FD8F71"/>
<path d="M101.588 94.0577C99.8494 94.0577 98.4395 92.6478 98.4395 90.9088V6.40177C98.4395 4.66286 99.8494 3.25293 101.588 3.25293C103.328 3.25293 104.737 4.66286 104.737 6.40177V90.9088C104.737 92.6478 103.328 94.0577 101.588 94.0577Z" fill="#181819"/>
<path d="M152.717 107.749L105.451 184.568H199.683C202.412 184.568 204.084 181.576 202.654 179.252L158.659 107.749C157.297 105.535 154.079 105.535 152.717 107.749Z" fill="#FC7753"/>
<path d="M202.653 179.252L158.659 107.749C157.297 105.535 154.079 105.535 152.717 107.749L145.181 119.998L184.91 184.568H199.683C202.411 184.568 204.084 181.576 202.653 179.252Z" fill="#FD8F71"/>
<path d="M44.5173 107.91L0.522904 179.413C-0.907268 181.737 0.76497 184.729 3.49396 184.729H97.7253L50.4594 107.91C49.0971 105.696 45.8792 105.696 44.5173 107.91Z" fill="#FC7753"/>
<path d="M98.6169 72.5156L29.5742 184.729H173.602L104.559 72.5156C103.197 70.3021 99.9792 70.3021 98.6169 72.5156Z" fill="#FC7753"/>
<path d="M104.559 72.3551C103.198 70.1412 99.9797 70.1412 98.6174 72.3551L92.4209 82.4263L155.267 184.568H173.602L104.559 72.3551Z" fill="#FD8F71"/>
<path d="M54.2394 113.891L10.7529 184.568H29.5753L63.6506 129.187L54.2394 113.891Z" fill="#FD8F71"/>
</svg>
