<svg width="239" height="56" viewBox="0 0 239 56" fill="none" xmlns="http://www.w3.org/2000/svg">
<path d="M3.18556 17.0696H0V11.2593H3.18556V9.84603C3.18556 3.02624 7.06656 -0.19297 14.9407 0.00893203V5.96503C11.5084 5.86408 10.3531 6.97454 10.3531 10.104V11.2257H15.2436V17.036H10.3531V39.2227H3.18556V17.0696Z" fill="#FC7753"/>
<path d="M46.2356 39.2229H39.1241V35.6896C38.1312 36.9393 36.8615 37.9414 35.4153 38.6168C33.9691 39.2922 32.3857 39.6226 30.7901 39.5818C24.2844 39.5818 19.5733 35.3419 19.5733 27.6696V11.2595H26.6399V26.6601C26.6399 31.1468 29.1188 33.5696 32.854 33.5696C36.5891 33.5696 39.1129 31.1468 39.1129 26.6601V11.2595H46.2243L46.2356 39.2229Z" fill="#FC7753"/>
<path d="M72.7857 23.7772C72.7857 19.2905 70.318 16.8676 66.5828 16.8676C62.8476 16.8676 60.2677 19.2905 60.2677 23.7772V39.2226H53.2012V11.2593H60.2677V14.7477C61.2797 13.4955 62.5679 12.4945 64.0312 11.8231C65.4946 11.1518 67.0935 10.8282 68.7028 10.8779C75.2085 10.8779 79.8522 15.1178 79.8522 22.8462V39.2226H72.7857V23.7772Z" fill="#FC7753"/>
<path d="M97.5747 10.8103C99.327 10.7886 101.061 11.1685 102.644 11.921C104.226 12.6735 105.616 13.7784 106.705 15.1512V1.90417H113.873V39.256H106.705V35.0834C105.693 36.5696 104.318 37.7724 102.71 38.5773C101.102 39.3823 99.3149 39.7626 97.5186 39.6822C90.4072 39.6822 84.7539 33.872 84.7539 25.1004C84.7539 16.3289 90.4072 10.8103 97.5747 10.8103ZM99.3357 17.0132C95.5557 17.0132 91.9663 19.8398 91.9663 25.1453C91.9663 30.4508 95.5557 33.4681 99.3357 33.4681C103.116 33.4681 106.761 30.5406 106.761 25.2463C106.761 19.9519 103.262 17.0132 99.3357 17.0132Z" fill="#FC7753"/>
<path d="M157.786 25.6964H151.886V39.2239H144.82V3.992H157.786C166.266 3.992 170.506 8.79278 170.506 14.8947C170.562 20.2451 166.872 25.6964 157.786 25.6964ZM157.483 19.9983C161.477 19.9983 163.238 18.0242 163.238 14.8947C163.238 11.7652 161.477 9.75742 157.483 9.75742H151.875V20.0095L157.483 19.9983Z" fill="#FC7753"/>
<path d="M195.463 32.6949H181.431L179.109 39.4249H171.684L184.359 4.14822H192.581L205.256 39.4249H197.785L195.463 32.6949ZM188.442 12.3028L183.349 27.0416H193.59L188.442 12.3028Z" fill="#FC7753"/>
<path d="M217.067 23.7109V39.4143H210V4.17126H217.067V20.0318L229.888 4.17126H238.457L223.875 21.6358L238.816 39.4031H229.843L217.067 23.7109Z" fill="#FC7753"/>
<path d="M154.388 45.7064C149.86 45.6986 145.415 44.5034 141.494 42.2399C137.573 39.9765 134.315 36.7241 132.044 32.8075C129.774 28.8909 128.571 24.4472 128.555 19.9201C128.539 15.393 129.711 10.941 131.954 7.00854C128.48 8.96963 125.506 11.7074 123.265 15.008C121.025 18.3085 119.577 22.0825 119.036 26.035C118.496 29.9876 118.876 34.0117 120.148 37.7929C121.42 41.5741 123.548 45.01 126.368 47.8323C129.188 50.6545 132.622 52.7867 136.402 54.0621C140.182 55.3375 144.205 55.7217 148.158 55.1847C152.111 54.6476 155.887 53.2038 159.189 50.9661C162.492 48.7285 165.233 45.7575 167.197 42.2853C163.298 44.5221 158.883 45.7014 154.388 45.7064V45.7064Z" fill="#FC7753"/>
</svg>
