<svg width="105" height="83" viewBox="0 0 105 83" fill="none" xmlns="http://www.w3.org/2000/svg">
<path d="M52.2791 17.0474L15.2722 47.5557C15.2722 47.5987 15.2614 47.6621 15.2397 47.7484C15.2185 47.8341 15.2073 47.8963 15.2073 47.9405V78.8334C15.2073 79.9488 15.6151 80.9154 16.4304 81.7294C17.2456 82.5439 18.2109 82.9537 19.3265 82.9537H44.0402V58.2387H60.5183V82.9546H85.2318C86.3472 82.9546 87.3138 82.5457 88.1279 81.7294C88.9432 80.9163 89.3524 79.949 89.3524 78.8334V47.9405C89.3524 47.7691 89.3289 47.6398 89.2874 47.5557L52.2791 17.0474Z" fill="#FC7753"/>
<path d="M103.446 40.6028L89.3514 28.8891V2.62962C89.3514 2.0293 89.1584 1.53562 88.7711 1.14923C88.387 0.7633 87.8933 0.570333 87.2916 0.570333H74.9346C74.3336 0.570333 73.8401 0.7633 73.4535 1.14923C73.0678 1.53562 72.8751 2.02953 72.8751 2.62962V15.1799L57.1713 2.04982C55.7998 0.934174 54.169 0.376465 52.2809 0.376465C50.3929 0.376465 48.7624 0.934174 47.3895 2.04982L1.11252 40.6028C0.683533 40.9454 0.448411 41.4066 0.404678 41.986C0.361171 42.5649 0.51108 43.0705 0.854858 43.4993L4.84516 48.2621C5.18894 48.6481 5.63889 48.8841 6.19683 48.9704C6.71193 49.0137 7.22703 48.8631 7.74214 48.52L52.2795 11.3825L96.8173 48.5198C97.1613 48.8192 97.6111 48.9686 98.169 48.9686H98.3624C98.9194 48.8839 99.3685 48.6463 99.7141 48.2612L103.705 43.4991C104.048 43.0694 104.198 42.5647 104.154 41.9851C104.11 41.4073 103.874 40.9461 103.446 40.6028Z" fill="#FC7753"/>
</svg>
