<svg width="83" height="113" viewBox="0 0 83 113" fill="none" xmlns="http://www.w3.org/2000/svg">
<path d="M41.4324 0C18.5861 0 0 18.5861 0 41.4324C0 48.9536 3.37309 57.0427 3.51444 57.3839C4.60387 59.9698 6.75348 63.9863 8.30354 66.3406L36.7116 109.384C37.8741 111.149 39.5948 112.16 41.4324 112.16C43.2701 112.16 44.9907 111.149 46.1533 109.386L74.5637 66.3406C76.1162 63.9863 78.2634 59.9698 79.3528 57.3839C79.4942 57.0451 82.8648 48.9561 82.8648 41.4324C82.8648 18.5861 64.2787 0 41.4324 0ZM74.8586 55.4926C73.8862 57.8104 71.8852 61.5466 70.4936 63.6573L42.0832 106.703C41.5226 107.554 41.3447 107.554 40.7841 106.703L12.3737 63.6573C10.982 61.5466 8.98108 57.808 8.00864 55.4902C7.96721 55.3903 4.8744 47.9446 4.8744 41.4324C4.8744 21.2743 21.2743 4.8744 41.4324 4.8744C61.5905 4.8744 77.9904 21.2743 77.9904 41.4324C77.9904 47.9544 74.8903 55.4195 74.8586 55.4926Z" fill="#FC7753"/>
<path d="M41.4309 19.5C29.3351 19.5 19.4961 29.3414 19.4961 41.4348C19.4961 53.5282 29.3351 63.3696 41.4309 63.3696C53.5267 63.3696 63.3657 53.5282 63.3657 41.4348C63.3657 29.3414 53.5267 19.5 41.4309 19.5ZM41.4309 58.4952C32.0257 58.4952 24.3705 50.8424 24.3705 41.4348C24.3705 32.0272 32.0257 24.3744 41.4309 24.3744C50.8361 24.3744 58.4913 32.0272 58.4913 41.4348C58.4913 50.8424 50.8361 58.4952 41.4309 58.4952Z" fill="#FC7753"/>
</svg>
