<svg width="36" height="29" viewBox="0 0 36 29" fill="none" xmlns="http://www.w3.org/2000/svg">
<path d="M31.6957 5.0087H27.9391L25.8652 1.87826C25.0826 0.704348 23.713 0 22.3043 0H13.6957C12.287 0 10.9174 0.704348 10.1348 1.87826L8.06087 5.0087H4.30435C1.91739 5.0087 0 6.92609 0 9.31304V24.4956C0 26.8826 1.91739 28.8 4.30435 28.8H31.6957C34.0826 28.8 36 26.8826 36 24.4956V9.31304C36 6.92609 34.0826 5.0087 31.6957 5.0087ZM18 25.2783C12.6391 25.2783 8.29565 20.9348 8.29565 15.5739C8.29565 10.213 12.6391 5.90869 18 5.90869C23.3609 5.90869 27.7043 10.2522 27.7043 15.613C27.7043 20.9348 23.3609 25.2783 18 25.2783ZM31.1478 11.0739C31.1087 11.0739 31.0696 11.0739 30.9913 11.0739H29.4261C28.7217 11.0348 28.1739 10.4478 28.213 9.74348C28.2522 9.07826 28.7609 8.56956 29.4261 8.53043H30.9913C31.6957 8.4913 32.2826 9.03913 32.3217 9.74348C32.3609 10.4478 31.8522 11.0348 31.1478 11.0739Z" fill="#FC7753"/>
<path d="M18.0001 10.213C15.0262 10.213 12.6001 12.6391 12.6001 15.613C12.6001 18.5869 15.0262 20.9739 18.0001 20.9739C20.974 20.9739 23.4001 18.5478 23.4001 15.5739C23.4001 12.6 20.974 10.213 18.0001 10.213Z" fill="#FC7753"/>
</svg>
