<svg width="33" height="29" viewBox="0 0 33 29" fill="none" xmlns="http://www.w3.org/2000/svg">
<path fill-rule="evenodd" clip-rule="evenodd" d="M16.5 28.8073L15.9279 28.3414C3.39454 18.1334 0 14.5401 0 8.70319C0 3.90425 3.90425 0 8.70319 0C12.7137 0 14.9806 2.27764 16.5 3.99099C18.0194 2.27764 20.2863 0 24.2968 0C29.0957 0 33 3.90425 33 8.70319C33 14.5401 29.6055 18.1334 17.0721 28.3414L16.5 28.8073ZM8.70319 1.81276C4.90419 1.81276 1.81276 4.90419 1.81276 8.70319C1.81276 13.7039 4.95975 17.0468 16.5 26.4682C28.0403 17.0468 31.1872 13.7039 31.1872 8.70319C31.1872 4.90419 28.0958 1.81276 24.2968 1.81276C20.8175 1.81276 19.0018 3.88379 17.5438 5.5484L16.5 6.72085L15.4562 5.5484C13.9982 3.88379 12.1825 1.81276 8.70319 1.81276Z" fill="#FC7753"/>
</svg>
