<svg width="101" height="104" viewBox="0 0 101 104" fill="none" xmlns="http://www.w3.org/2000/svg">
<path d="M39.9513 103.764C46.7258 103.764 52.2177 98.2723 52.2177 91.4978C52.2177 84.7233 46.7258 79.2314 39.9513 79.2314C33.1768 79.2314 27.6849 84.7233 27.6849 91.4978C27.6849 98.2723 33.1768 103.764 39.9513 103.764Z" fill="#FC7753"/>
<path d="M75.7488 79.2314C68.9744 79.2314 63.4824 84.7234 63.4824 91.4978C63.4824 98.2722 68.9744 103.764 75.7488 103.764C82.5232 103.764 88.0151 98.2722 88.0151 91.4978C88.0151 84.7234 82.5232 79.2314 75.7488 79.2314Z" fill="#FC7753"/>
<path d="M96.6524 66.7143H32.6921L31.4405 59.4547H84.0106C85.5571 59.4593 86.9483 58.5152 87.5152 57.0765L100.032 25.5344C100.792 23.6051 99.8447 21.4245 97.9153 20.6642C97.4733 20.4899 97.0023 20.4011 96.5273 20.4026H24.9318L21.9278 3.12955C21.6193 1.30314 20.0248 -0.0255409 18.1728 0.000372549H3.77857C1.70476 0.000372549 0.0235596 1.68157 0.0235596 3.75538C0.0235596 5.82919 1.70476 7.51039 3.77857 7.51039H15.0436L25.8079 71.0952C26.1165 72.9216 27.7109 74.2503 29.563 74.2244H96.6524C98.7262 74.2244 100.407 72.5432 100.407 70.4693C100.407 68.3955 98.7262 66.7143 96.6524 66.7143Z" fill="#FC7753"/>
</svg>
